<svg id="Capa_2" enable-background="new 0 0 453.543 453.543" viewBox="0 0 453.543 453.543" xmlns="http://www.w3.org/2000/svg"><g><path d="m329.309 219.17c-11.121-2.365-21.994-5.895-32.383-10.515.541 19.783-3.258 39.673-11.053 57.864-3.3 7.703-8.904 16.143-17.284 16.218-6.055.054-11.024-2.605-15.164-7.025-10.383-11.083-13.273-46.731-14.857-64.95-6.204 3.113-23.658 32.151-29.863 35.264 1.605 5.577 5.013 10.424 8.113 15.33 3.099 4.906 6.009 10.201 6.406 15.99.397 5.79-2.392 12.173-7.81 14.252-5.01 1.922-10.617-.216-15.338-2.766-10.617-5.737-20.007-13.733-27.363-23.3-4.427 5.839-8.853 11.679-13.28 17.518 25.364 14.902 45.828 37.994 57.573 64.965s18.068 61.732 11.7 90.452l.008-.002c-.347 1.331-.41 2.633-.127 3.886 2.573 11.388 31.219 14.618 63.981 7.215s57.236-22.636 54.663-34.024c-.361-1.596-1.25-3.025-2.574-4.294-37.914-56.326-42.53-129.752-15.348-192.078z" fill="#6ce081"/><path d="m246.585 407.01c-3.738-18.949-8.858-37.862-17.01-55.425-13.803-29.736-35.922-58.888-64.579-75.873-1.854 2.446-3.709 4.892-5.563 7.338 25.363 14.902 45.828 37.994 57.573 64.965s18.068 61.732 11.7 90.452l.008-.002c-.347 1.331-.41 2.633-.127 3.886 1.319 5.835 9.503 9.514 21.563 10.73.058-15.362-.455-30.303-3.565-46.071z" fill="#35af81"/><path d="m418.125 49.569c-16.07-8.837-34.926-11.202-53.266-11.184-13.776.013-27.54 1.33-41.088 3.825-.034-11.394-7.376-22.036-16.926-28.409-10.016-6.685-22.128-9.413-34.045-11.147-59.031-8.59-119.808 4.352-174.138 28.984-34.166 15.49-67.594 36.94-85.918 69.673-9.788 17.484-13.986 41.289-.694 56.282 5.723 6.455 13.955 10.166 22.547 11.46-19.715 21.631-31.091 51.057-29.32 80.346.955 15.79 6.283 32.612 19.376 41.49 11.896 8.066 27.987 7.773 41.354 2.493 9.582-3.785 18.013-9.815 25.855-16.575 1.151 11.388 8.618 22.559 19.188 27.592 15.635 7.447 35.111 3.07 48.714-7.647 11.279-8.886 19.01-21.447 24.361-34.872 6.428 1.647 13.253 1.928 19.886 1.274 30.88-3.047 58.034-27.021 66.881-56.487 5.505.962 11.107 1.287 16.667.876.629 12.987 7.821 26.113 18.35 34.24 15.489 11.955 36.114 15.03 55.674 14.573 15.467-.362 31.492-2.905 44.241-11.667 11.324-7.782 19.321-21.471 18.132-34.895 16.384-8.978 27.056-27.821 25.848-46.53-.892-13.815-8.216-26.877-18.992-35.503 10.469-8.367 17.457-21.255 16.933-34.71-.712-18.326-13.551-34.645-29.62-43.482z" fill="#35af81"/><path d="m296.975 194.52c-11.532 1.558-23.265 1.895-34.021-.557-6.578 17.13-16.735 32.473-32.886 42.751-16.485 10.492-37.237 15.421-55.666 10.682-1.308 2.642-2.648 5.254-4.058 7.796-8.653 15.603-24.397 30.655-43.608 28.703-16.693-1.696-25.097-15.55-29.032-31.587-15.438 7.861-33.905 8.778-46.001-6.582-12.137-15.412-10.217-37.718-7.426-55.87 1.985-12.911 5.375-25.11 9.741-37.009-13.709-3.457-25.856-11.165-34.299-22.781-4.991-6.867-8.328-14.434-10.209-22.259-7.3 16.539-9.169 36.578 2.54 49.785 5.723 6.455 13.955 10.166 22.547 11.46-19.715 21.631-31.091 51.057-29.32 80.346.955 15.79 6.283 32.612 19.376 41.49 11.896 8.066 27.987 7.773 41.354 2.493 9.582-3.785 18.013-9.815 25.855-16.575 1.151 11.388 8.618 22.559 19.187 27.592 15.635 7.447 35.111 3.07 48.714-7.647 11.279-8.886 19.01-21.447 24.36-34.872 6.428 1.647 13.253 1.928 19.887 1.274 30.879-3.047 58.034-27.02 66.881-56.487 5.505.962 11.107 1.287 16.667.876.629 12.987 7.821 26.113 18.35 34.24 9.41 7.263 20.719 11.223 32.53 13.128-21.923-13.074-38.422-34.574-41.463-60.39z" fill="#1ca067"/><path d="m165.035 192.878c-2.013 7.65-9.606 12.019-16.008 15.721-6.826 3.948-14.122 7.19-21.881 8.761-14.905 3.018-31.751-1.362-39.611-15.284-8.017-14.201-4.565-31.353 3.202-44.831 7.487-12.992 19.468-25.032 35.081-26.674 3.746-.394 7.573-.178 11.219.792 3.989 1.062 9.522 3.269 10.76 7.677 1.649 5.869-5.668 7.506-9.795 6.228-3.439-1.065-6.358-3.469-8.379-6.41-8.238-11.989-2.039-26.506 7.858-35.176 10.985-9.623 27.78-17.139 42.435-12.749 6.648 1.991 12.959 6.536 15.527 13.182 2.384 6.172 1.558 13.944-3.103 18.862-1.349 1.424-3.072 2.703-5.031 3.098-4.005.808-5.756-3.094-4.161-6.29 1.885-3.779 6.704-6.448 10.425-8.143 7.671-3.494 16.848-3.921 24.355.229 6.754 3.733 11.928 10.827 11.845 18.744-.082 7.854-5.179 15.404-12.76 17.751-1.084.336-.621 2.043.47 1.705 6.964-2.156 12.045-8.203 13.574-15.279 1.614-7.469-1.221-15.049-6.638-20.295-5.973-5.786-14.23-8.214-22.418-7.116-4.144.556-8.169 1.954-11.811 4.002-3.369 1.895-7.475 4.582-8.943 8.338-.984 2.517-.596 5.725 1.763 7.336 2.723 1.86 6.359.608 8.761-1.203 5.678-4.282 7.616-12.046 6.335-18.801-1.457-7.687-7.35-13.573-14.363-16.6-8.308-3.585-17.606-3.046-26.056-.231-14.774 4.921-32.307 16.834-33.593 33.852-.523 6.915 1.795 14.463 7.035 19.192 4.668 4.213 14.617 7.157 18.031-.173 3.817-8.197-8.602-13.063-14.461-14.035-8.834-1.465-17.959.848-25.496 5.54-15.115 9.412-26.511 28.055-27.92 45.782-.7 8.803 1.341 18.033 6.447 25.321 4.966 7.087 12.604 11.614 21.001 13.408 8.982 1.92 18.252.765 26.857-2.259 8.698-3.057 17.784-7.701 24.76-13.798 3.014-2.634 5.364-5.798 6.391-9.703.291-1.102-1.414-1.572-1.704-.471z" fill="#561a1a"/><path d="m322.522 159.06c-11.234-9.227-18.038-26.206-7.597-38.721 4.269-5.117 10.786-7.517 17.321-6.026 2.964.676 5.792 2.092 7.958 4.246.985.98 1.828 2.105 2.464 3.342.65 1.263 1.201 2.793 1.158 4.237-.072 2.401-1.839 4.887-4.425 3.825-3.463-1.423-2.553-6.919-1.654-9.787 1.16-3.702 3.578-7.056 6.782-9.258 5.817-3.998 13.699-3.31 18.949 1.35 6.412 5.691 5.535 14.901 1.647 21.787-1.098 1.945-2.415 3.764-3.838 5.482-.883 1.066-3.929 5.514-5.336 1.759-.514-1.373 1.46-3.518 2.32-4.346 1.502-1.446 3.413-2.422 5.423-2.938 8.153-2.092 15.279 3.709 17.133 11.488 2.069 8.685-2.841 17.071-9.617 22.181-.897.677-.017 2.213.892 1.527 7.432-5.605 12.696-14.662 10.429-24.178-2.014-8.453-9.717-14.718-18.574-12.892-3.615.745-7.388 2.956-9.074 6.366-1.049 2.122-1.136 6.162 1.999 6.471 2.018.199 3.521-1.721 4.688-3.057 1.891-2.165 3.662-4.466 5.081-6.971 2.384-4.209 3.808-9.081 3.223-13.942-1.08-8.98-9.719-15.367-18.632-14.435-8.65.905-15.478 8.887-15.995 17.414-.183 3.028.691 7.339 4.219 8.055 4.025.817 6.432-3.462 6.061-6.929-.896-8.36-10.251-13.257-17.88-13.003-10.242.341-17.693 9.084-19.345 18.734-1.961 11.455 4.351 22.391 12.969 29.469.874.717 2.132-.527 1.251-1.25z" fill="#561a1a"/><g fill="#35af81"><path d="m295.631 319.473c.608-.631.588-1.636-.043-2.243-.631-.608-1.636-.588-2.244.043s-.588 1.636.043 2.243 1.636.588 2.244-.043z"/><path d="m284.09 323.689c.335 2.271 2.447 3.84 4.717 3.505s3.84-2.447 3.505-4.717c-.335-2.271-2.447-3.84-4.717-3.505s-3.839 2.447-3.505 4.717z"/><path d="m291.937 313.872c-.214-1.449-1.561-2.451-3.01-2.237s-2.451 1.561-2.237 3.01 1.561 2.451 3.01 2.237c1.449-.213 2.451-1.561 2.237-3.01z"/><path d="m230.313 334.041c-.833-.272-1.288-1.167-1.017-2 .272-.833 1.167-1.288 2-1.017.833.272 1.288 1.167 1.017 2-.272.833-1.167 1.289-2 1.017z"/><path d="m242.481 332.337c.772 2.161-.355 4.539-2.516 5.311s-4.539-.355-5.311-2.516.355-4.539 2.516-5.311c2.161-.771 4.539.355 5.311 2.516z"/><path d="m230.94 327.361c-.493-1.379.226-2.897 1.606-3.389 1.379-.493 2.897.226 3.389 1.606.493 1.379-.226 2.897-1.606 3.389-1.379.492-2.897-.227-3.389-1.606z"/></g><path d="m244.519 316.316c1.126 4.317.084 8.327-2.328 8.956s-5.281-2.36-6.408-6.677-.084-8.327 2.329-8.956c2.412-.629 5.281 2.36 6.407 6.677z" fill="#510146"/><path d="m283.63 306.93c1.126 4.317.084 8.327-2.329 8.956-2.412.629-5.281-2.36-6.407-6.677s-.084-8.327 2.329-8.956c2.412-.629 5.281 2.36 6.407 6.677z" fill="#510146"/><path d="m251.482 318.585c1.109 4.24 4.927 7.05 9.117 7.05.788 0 1.59-.1 2.386-.307 4.24-1.109 7.05-4.927 7.05-9.117 0-.789-.1-1.59-.307-2.385-.164-.63-.808-1.008-1.438-.844s-1.008.808-.844 1.438c.156.601.231 1.201.231 1.791-.001 3.136-2.107 6.008-5.287 6.836-.601.157-1.201.231-1.791.231-3.136-.001-6.008-2.107-6.836-5.287-.164-.63-.808-1.007-1.438-.843-.63.163-1.007.807-.843 1.437z" fill="#510146"/><ellipse cx="398.196" cy="70.453" fill="#6ce081" rx="16.548" ry="31.005" transform="matrix(.389 -.921 .921 .389 178.402 409.885)"/><path d="m357.114 51.558c3.566 1.506 5.25 5.586 3.761 9.114-1.489 3.527-5.588 5.166-9.155 3.66s-5.25-5.586-3.761-9.114c1.489-3.527 5.588-5.166 9.155-3.66z" fill="#6ce081"/></g></svg>