<svg id="Food" height="512" viewBox="0 0 1000 1000" width="512" xmlns="http://www.w3.org/2000/svg"><g><path d="m131.908 552.49c4.055 2.359 8.121 4.723 12.127 7.189 23.531 14.502 29.973 36.531 22.235 76.043-10.927 55.792-3.095 97.736 23.939 128.227 27.532 31.053 70.797 40.607 109.188 47.127 61.391 10.427 111.008 24.266 153.605 57.916 30.658 24.219 62.36 49.262 108.371 55.367 7.107.944 14.186 1.424 21.037 1.424h.008c38.157 0 69.705-14.348 91.232-41.49 18.143-22.879 22.801-49.907 26.914-73.754 3.684-21.367 7.162-41.549 19.523-56.529 17.484-21.191 47.211-27.5 78.683-34.178 22.505-4.776 45.776-9.715 66.392-20.518 51.865-27.172 73.383-87.033 51.164-142.34-10.025-24.957-26.127-45.342-41.701-65.051-17.853-22.598-34.713-43.941-40.289-69.689-6.742-31.123.998-64.34 9.189-99.51 4.176-17.92 8.494-36.448 10.715-54.734 7.243-59.545-6.313-108.213-41.44-148.783-24.684-28.511-62.612-45.531-101.455-45.531-7.39 0-14.794.612-22.008 1.819-45.329 7.584-76.763 32.5-107.162 56.594-9.323 7.389-18.964 15.029-28.886 22.066-16.852 11.947-34.127 17.753-52.811 17.756-9.67 0-20.069-1.584-30.912-4.703-16.432-4.727-32.338-11.449-49.179-18.568-15.54-6.571-31.609-13.365-48.411-18.595-20.982-6.53-42.023-9.841-62.54-9.841-51.204 0-94.755 21.02-122.634 59.186-20.057 27.461-22.69 56.637-25.238 84.852-.661 7.326-1.345 14.903-2.341 22.205-4.131 30.275-20.786 56.012-52.417 80.992-.146.117-.291.234-.436.355-23.537 19.709-39.745 50.955-42.302 81.541-2.159 25.814 5.017 49.195 20.746 67.613 13.834 16.202 30.743 26.035 47.094 35.542z" fill="#fff"/><g><g><path d="m585.298 900.094c-30.024 0-56.985-11.169-70.388-17.825-13.204-6.562-24.135-15.804-34.706-24.741-5.437-4.6-11.062-9.354-16.938-13.697-22.387-16.551-47.324-29.635-76.234-40.004-22.006-7.891-45.36-11.9-67.945-15.779-22.066-3.789-44.882-7.708-66.611-15.238-47.284-16.389-69.406-54.787-63.977-111.044.77-7.967 2.295-15.999 3.766-23.769 2.956-15.599 6.014-31.727 2.92-47.588-4.271-21.909-16.592-39.303-37.662-53.17-5.087-3.346-10.365-6.447-15.471-9.447-17.124-10.058-33.299-19.559-43.92-38.121-20.316-35.514-1.949-79.24 25.651-102.352 38.392-30.319 58.351-65.473 62.874-110.676.295-2.947.567-5.851.835-8.711 2.339-24.896 4.356-46.398 17.913-69.25 13.22-22.275 36.642-39.363 65.951-48.115 11.85-3.537 23.887-5.254 36.797-5.254 38.438 0 75.812 15.582 111.954 30.653 12.005 5.008 23.349 9.737 34.718 13.915 14.521 5.336 28.886 8.041 42.695 8.041 31.91 0 62.244-13.553 98.352-43.939 29.779-25.061 69.893-53.826 116.141-53.826 10.934 0 21.994 1.6 32.881 4.75 59.454 17.209 87.855 84.363 85.184 141.805-1.17 25.125-6.566 49.949-11.785 73.957-5.885 27.064-11.968 55.053-11.9 83.308.1 41.649 23.059 71.546 47.365 103.193 6.198 8.071 12.607 16.415 18.572 24.929 15.561 22.203 32.572 52.074 25.955 86.246-8.715 44.992-55.855 64.68-83.182 72.41-9.689 2.744-19.551 4.99-29.09 7.162-35.471 8.08-68.975 15.712-92.104 47.238-13.098 17.854-16.779 39.623-20.34 60.676-4.303 25.447-8.754 51.762-29.475 72.314-14.686 14.564-34.468 21.949-58.793 21.949zm-70.073-589.901c-1.789 0-3.591.027-5.396.08-84.914 2.492-159.037 68.203-168.746 149.598-2.838 23.797-1.453 48.23 4.232 74.697 18.099 76.096 89.439 129.281 173.471 129.281 16.246 0 32.43-2.026 48.101-6.02 44.481-11.338 81.527-38.873 104.313-77.535 22.799-38.684 28.974-84.365 17.385-128.627-22.159-84.618-91.825-141.474-173.36-141.474z" fill="#f2f2f2"/><path d="m518.377 660.654c-81.826-.002-151.436-52.383-169.274-127.379-21.353-99.417 29.037-187.068 122.528-213.207 14.742-4.121 29.805-6.213 44.772-6.213 63.084 0 121.443 36.98 152.302 96.509 23.938 46.177 27.949 96.438 11.295 141.524-16.037 43.414-50.064 77.531-95.809 96.061-20.812 8.43-42.954 12.705-65.805 12.705-.003 0-.003 0-.009 0z" fill="#ffe40e"/><path d="m646.877 377.336c18.669 37.35 23.428 81.799 11.438 120.82-34.842 113.409-204.328 138.909-272.236 35.619-25.348-38.553-31.311-91.791-8.73-149.941-29.221 39.826-40.431 92.706-28.245 149.441 17.839 74.996 87.448 127.377 169.274 127.379h.01c22.851 0 44.993-4.275 65.805-12.705 45.744-18.529 79.771-52.646 95.809-96.061 16.654-45.086 12.643-95.348-11.295-141.524-6.211-11.978-13.58-22.993-21.83-33.028z" fill="#fab301"/><path d="m567.547 358.238c-33.193-17.967-90.16-2.775-117.959 13.584-26.586 15.642-48.301 48.533-43.18 80.439 5.49 34.193 38.092 38.292 63.808 21.139 14.679-9.788 25.495-24.549 38.022-36.718 14.441-14.03 32.129-20.915 51.711-23.672 43.385-6.115 33.621-40.684 7.598-54.772z" fill="#fbf686"/><path d="m815.102 690.754c27.326-7.73 74.467-27.418 83.182-72.41 6.617-34.172-10.395-64.043-25.955-86.246-5.965-8.514-12.374-16.857-18.572-24.929-24.307-31.647-47.266-61.544-47.365-103.193-.067-28.255 6.016-56.243 11.9-83.308 4.349-20.01 8.787-40.59 10.834-61.434-9.066 31.002-22.449 60.561-30.515 91.891-14.758 57.314 1.712 103.355 34.78 150.205 29.816 42.24 79.436 105.709 21.457 148.006-21.014 15.332-49.865 20.971-74.463 27.979-25.644 7.301-51.066 15.516-73.988 29.4-44.154 26.746-48.344 72.996-60.225 118.42-20.227 77.318-101.66 53.496-148.938 16.208-43.368-34.206-80.277-73.592-136.064-86.823-44.004-10.434-109.075 9.888-139.638-32.834-15.019-20.996-8.547-58.297-1.99-94.492 11.518-63.607-25.394-95.598-62.018-120.371-56.994-38.555-49.084-82.525-17.77-103.244 28.451-18.826 53.164-51.859 52.255-110.766-.304-19.705-1.659-38.591-.4-57.184-2.044 10.365-3.054 20.98-4.117 32.303-.268 2.86-.54 5.764-.835 8.711-4.523 45.203-24.482 80.356-62.874 110.676-27.601 23.111-45.969 66.837-25.652 102.351 10.621 18.563 26.796 28.063 43.92 38.121 5.105 3 10.384 6.102 15.471 9.447 21.07 13.867 33.391 31.261 37.662 53.17 3.094 15.861.036 31.989-2.92 47.588-1.471 7.77-2.996 15.802-3.766 23.769-5.43 56.257 16.692 94.655 63.977 111.044 21.729 7.53 44.545 11.449 66.611 15.238 22.585 3.879 45.939 7.889 67.945 15.779 28.91 10.369 53.848 23.453 76.234 40.004 5.877 4.344 11.502 9.098 16.938 13.697 10.571 8.938 21.502 18.18 34.706 24.741 13.402 6.656 40.363 17.825 70.388 17.825h.003c24.325 0 44.107-7.385 58.793-21.949 20.721-20.553 25.172-46.867 29.475-72.314 3.561-21.053 7.242-42.822 20.34-60.676 23.129-31.526 56.633-39.158 92.104-47.238 9.539-2.172 19.4-4.418 29.09-7.162z" fill="#d8d8d8"/><path d="m700.65 435.23c-27.416-115.816-158.229-173.741-262.248-129.861-90.521 38.189-136.82 140.762-99.611 234.491 8.176 20.593 20.145 38.821 34.757 54.399-13.224-17.48-22.983-37.611-28.233-59.691-5.686-26.467-7.07-50.9-4.232-74.697 9.709-81.395 83.832-147.105 168.746-149.598 1.806-.053 3.607-.08 5.396-.08 81.535 0 151.201 56.855 173.359 141.475 11.061 42.24 5.902 85.76-14.403 123.27 26.321-40.875 37.491-93.147 26.469-139.708z" fill="#d8d8d8"/><g><g><path d="m630.434 178.068c13.969-3.551 27.505-11.67 40.295-18.196 15.822-8.07 32.977-13.749 49.068-21.394 1.695-.805.918-2.993-.463-3.551-32.781-13.227-77.242 9.039-90.141 41.901-.294.75.561 1.414 1.241 1.24z" fill="#fff"/></g><g><path d="m404.479 665.58c2.433 16.908 23.363 28.25 36.65 36.225 17.863 10.721 44.814 11.545 64.976 11.398 43.37-.317 86.328-12.479 118.985-41.511 1.959-1.743-.099-5.055-2.521-4.331-34.96 10.457-74.339 18.082-110.702 20.43-19.502 1.259-38.541.238-57.676-3.756-9.613-2.006-18.137-3.701-27.09-7.994-7.418-3.559-13.32-9.41-21.117-11.967-.982-.322-1.627.655-1.505 1.506z" fill="#fff"/></g><g><path d="m634.09 663.633c2.799 3.371 10.815.191 13.65-1.566 2.303-1.431 5.172-3.668 6.566-6.049 1.496-2.551 1.205-6.168.066-8.788-.42-.958-1.786-1.683-2.803-1.608-1.938.145-4.398.52-6.125 1.531-2.235 1.309-4.262 3.67-6.283 5.318-2.495 2.035-7.886 7.769-5.071 11.162z" fill="#fff"/></g></g></g><g fill="#68182b"><path d="m509.752 307.663c-84.192 2.472-161.15 67.125-171.264 151.897-3.047 25.554-1.117 50.467 4.273 75.557 23.725 99.749 129.293 149.577 224.77 125.242 93.842-23.919 147.784-116.898 123.578-209.354-22.154-84.607-92.312-145.957-181.357-143.342zm73.459 337.866c-93.295 37.791-207.797-12.923-231.567-112.857-20.224-94.156 25.842-183.57 120.69-210.089 79.195-22.143 157.125 17.747 194.053 88.981 47.199 91.051 13.078 194.975-83.176 233.965z"/><path d="m898.158 564.273c-20.27-50.457-71.23-83.737-82.959-137.895-11.465-52.924 13.27-108.626 19.605-160.752 6.076-49.961-3.291-94.895-36.807-133.602-25.74-29.73-66.854-43.672-105.428-37.216-53.465 8.945-85.744 45.394-127.955 75.322-31.178 22.102-63.939 26.403-100.459 15.898-33.494-9.637-64.605-26.893-97.998-37.285-59.076-18.389-125.115-10.41-163.54 42.195-21.729 29.75-19.282 63.621-23.991 98.154-5.433 39.826-29.021 69.5-59.682 93.713-33.332 27.912-50.449 84.883-19.237 121.428 14.882 17.43 35.403 26.945 54.6 38.776 36.305 22.372 38.614 58.511 31.181 96.474-7.594 38.779-8.227 80.346 19.374 111.474 23.862 26.914 64.136 35.095 97.814 40.813 59.067 10.031 114.354 23.85 162.466 61.855 30.715 24.264 58.416 45.961 98.809 51.322 35.828 4.758 71.17-3.585 94.358-32.824 30.337-38.256 15.606-92.922 46.675-130.578 35.781-43.361 104.313-35.067 151.094-59.576 44.125-23.116 60.008-73.073 42.08-117.696zm-2.439 53.573c-7.658 39.547-46.315 60.492-81.327 70.396-45.241 12.803-92.476 14.324-122.589 55.367-29.268 39.894-12.272 95.712-49.549 132.682-33.174 32.9-88.91 22.154-126.182 3.639-19.639-9.756-33.869-25.35-51.256-38.199-23.631-17.471-49.297-30.461-76.904-40.361-43.727-15.678-90.816-15.858-134.582-31.027-49.545-17.172-67.066-58.252-62.232-108.325 2.313-23.939 11.395-47.777 6.65-72.108-4.709-24.141-18.426-41.447-38.793-54.852-21.594-14.211-45.072-23.111-58.557-46.684-19.19-33.541-2.033-76.365 25.059-99.055 37.457-29.578 59.003-64.504 63.797-112.414 2.805-28.035 3.576-51.911 18.396-76.891 14.143-23.83 38.439-39.177 64.451-46.943 62.904-18.777 124.787 18.301 181.822 39.262 56.179 20.643 100.398.029 143.629-36.353 41.873-35.236 89.842-64.998 146.613-48.566 58.746 17.005 85.908 83.151 83.301 139.177-2.477 53.25-23.816 103.777-23.688 157.393.129 53.572 37.614 88.521 66.41 129.613 17.416 24.848 31.542 53.214 25.531 84.249z"/><path d="m786.209 164.816c-.197-.204-.471.057-.369.283 9.518 21.395 16.213 41.385 17.828 64.939 1.479 21.564-1.271 43.996-3.637 65.428-.076.689.977.769 1.168.157 12.52-40.103 16.5-97.67-14.99-130.807z"/><path d="m798.027 302.969c-2.084 3.021-3.365 7.451-2.459 11.043.109.43.627.416.856.111 2.188-2.914 2.966-7.508 2.228-11.072-.064-.315-.47-.305-.625-.082z"/><path d="m207.514 263.137c-.005.561.872.7.989.136 3.624-17.353 10.579-34.991 20.058-49.945 10.236-16.151 25.094-27.686 39.465-39.853.146-.124-.01-.405-.191-.331-36.796 14.933-59.96 51.034-60.321 89.993z"/><path d="m274.53 170.418c-.157.281.148.551.419.418 1.859-.914 3.815-1.609 5.711-2.445 1.951-.861 3.822-1.182 5.234-2.834.193-.223.217-.645-.101-.789-3.943-1.799-9.367 2.285-11.263 5.65z"/><path d="m561.714 629.182c-39.435 10.335-86.173 8.326-123.306-9.047-.299-.139-.515.243-.256.437 17.011 12.721 38.105 16.796 58.811 18.918 22.213 2.278 44.823.097 65.153-9.354.552-.255.155-1.099-.402-.954z"/></g></g></g></svg>