<svg id="Layer_1" enable-background="new 0 0 66 66" viewBox="0 0 66 66" xmlns="http://www.w3.org/2000/svg"><g><g><path d="m55.03 61.81c-11.33 2.64-22.66 3.24-33.99 1.8-3.33-.42-6.66-1.02-10-1.8-.49-.12-.77-.67-.55-1.13.83-1.73 2.32-3.13 4.12-3.8h36.85c.69.25 1.33.62 1.91 1.07.94.72 1.71 1.67 2.21 2.73.23.46-.05 1.02-.55 1.13z" fill="#bc593c"/></g><g><path d="m55.03 61.81c-11.33 2.64-22.66 3.24-33.99 1.8.16-.05.31-.1.46-.16 1.27-.48 2.49-1.18 3.84-1.31 2.51-.23 4.92 1.54 7.42 1.19 2.23-.32 4.04-2.27 6.28-2.27 2.01-.01 4.04 1.57 5.88.75 1.17-.51 1.89-1.89 3.16-2.08.87-.12 1.71.38 2.6.44 1 .07 2.03-.53 2.47-1.43.12-.25.2-.51.23-.78.94.72 1.71 1.67 2.21 2.73.22.45-.06 1.01-.56 1.12z" fill="#a5402e"/></g><g><path d="m24.93 64.27c-.01 0-.01 0-.02 0-4.62-.4-9.3-1.14-13.92-2.22-.31-.07-.57-.28-.72-.58-.14-.29-.14-.61 0-.89.86-1.8 2.41-3.24 4.26-3.93.03-.01.06-.02.09-.02h36.85c.03 0 .06.01.09.02 1.84.69 3.4 2.12 4.26 3.93.06.12.01.27-.11.33s-.27.01-.33-.11c-.8-1.68-2.24-3.01-3.95-3.67h-36.77c-1.71.65-3.15 1.99-3.95 3.67-.07.15-.07.32 0 .47.08.16.22.27.39.31 4.59 1.07 9.25 1.81 13.85 2.21.13.01.23.13.22.26s-.11.22-.24.22z"/></g><g><ellipse cx="33.04" cy="56.88" fill="#a5402e" rx="18.42" ry="2.09"/></g><g><path d="m33.04 59.22c-7.5 0-18.67-.62-18.67-2.34 0-1.71 11.16-2.34 18.67-2.34s18.67.62 18.67 2.34-11.17 2.34-18.67 2.34zm0-4.18c-12.02 0-18.13 1.19-18.18 1.85.05.66 6.16 1.85 18.18 1.85s18.13-1.19 18.18-1.85c-.05-.67-6.16-1.85-18.18-1.85z"/></g><g><path d="m55.54 5.64c-.83 1.69-2.32 3.05-4.08 3.71h-36.85c-1.07-.4-2.03-1.06-2.81-1.89-.51-.54-.94-1.15-1.27-1.82-.25-.5.07-1.11.61-1.24 3.51-.81 7.03-1.43 10.54-1.86 9.88-1.19 19.76-.83 29.64 1.09 1.2.23 2.4.49 3.6.77.55.13.87.74.62 1.24z" fill="#bc593c"/></g><g><path d="m21.68 2.55c-.23.47-.66.85-1.15 1.07-.77.33-1.64.31-2.47.23-.83-.07-1.68-.17-2.49.02-.85.2-1.62.72-2.12 1.44-.38.55-.6 1.19-1.04 1.68-.18.19-.38.35-.6.48-.51-.54-.94-1.15-1.27-1.82-.25-.5.07-1.11.61-1.24 3.51-.82 7.02-1.44 10.53-1.86z" fill="#a5402e"/></g><g><path d="m12.75 8.57c-.13 0-.24-.11-.24-.24s.11-.24.24-.24h.01c.58-.14 1.16-.49 1.57-.99.15-.18.28-.38.42-.59.29-.44.59-.9 1.07-1.17.67-.37 1.46-.27 2.15-.18l.21.03c1.07.12 1.96.05 2.71-.22.9-.32 1.61-.96 1.92-1.72.11-.27.16-.56.16-.87 0-.13.11-.24.24-.24s.24.11.24.24c0 .37-.07.73-.2 1.06-.36.9-1.17 1.63-2.21 1.99-.82.29-1.78.37-2.93.25l-.21-.03c-.65-.08-1.33-.17-1.85.12-.38.21-.63.6-.9 1.01-.14.21-.28.43-.45.63-.48.58-1.15.99-1.89 1.16-.02 0-.04 0-.06 0z" fill="#a5402e"/></g><g><path d="m55.54 5.64c-.83 1.69-2.32 3.05-4.08 3.71h-26.02l-5.94-1.37c.87-.98 2.32-1.19 3.63-1.14s2.64.29 3.91-.05c1.5-.4 2.81-1.59 4.37-1.58 1.38.01 2.69.98 4.05.74 1.49-.27 2.66-1.95 4.14-1.64.84.18 1.5 1 2.36.98.77-.01 1.39-.68 2.14-.81 1.29-.2 2.25 1.16 3.45 1.65 1.11.46 2.51.07 3.24-.89.35-.46.52-1.04.53-1.61 1.2.23 2.4.49 3.6.77.55.13.87.74.62 1.24z" fill="#a5402e"/></g><g><path d="m51.46 9.6h-36.85c-.03 0-.06-.01-.09-.02-1.8-.68-3.34-2.07-4.21-3.83-.15-.3-.15-.65 0-.96.15-.32.44-.55.78-.63 8.25-1.91 16.61-2.75 24.87-2.5.13 0 .24.12.24.25s-.11.23-.25.24c-8.21-.25-16.54.59-24.75 2.49-.2.05-.36.18-.45.36-.08.17-.08.37 0 .53.81 1.63 2.23 2.93 3.9 3.57h36.76c1.67-.64 3.09-1.94 3.9-3.57.06-.12.21-.17.33-.11s.17.21.11.33c-.87 1.76-2.41 3.15-4.21 3.83-.02.02-.05.02-.08.02z"/></g><g><ellipse cx="33.04" cy="9.36" fill="#a5402e" rx="18.42" ry="2.09"/></g><g><path d="m20.48 11.13c-.01 0-.02 0-.03 0-6.08-.64-6.08-1.46-6.08-1.77 0-1.71 11.16-2.34 18.67-2.34s18.67.62 18.67 2.34c0 .31 0 1.04-5.16 1.67-.13.02-.26-.08-.27-.21-.02-.13.08-.26.21-.27 4.56-.56 4.73-1.18 4.73-1.18-.05-.66-6.16-1.85-18.18-1.85s-18.13 1.17-18.18 1.84c0 .01.2.71 5.65 1.29.13.01.23.13.22.27-.02.12-.13.21-.25.21z"/></g><g><path d="m20.47 33.28c.01.01.01.01 0 .03.01.01.01.02 0 .03-.03.42-.27.81-.58 1.09-.36.31-.79.55-1.22.71 1.3.79 1.8 2.56 1.68 4.15-.13 1.59-.74 3.08-1.19 4.6-.88 3.06-.96 6.32-.4 9.47.63.06 1.21.52 1.45 1.14s.13 1.39-.27 1.9c-.56.71-1.51.88-2.38.91-.86-.03-1.82-.19-2.38-.91-.41-.51-.51-1.27-.27-1.9.24-.62.82-1.08 1.44-1.14.56-3.15.49-6.41-.4-9.47-.43-1.52-1.06-3.01-1.18-4.6-.13-1.59.38-3.36 1.68-4.15-.44-.16-.86-.4-1.22-.71-.32-.28-.55-.67-.58-1.09v-.03c-.01-.01-.01-.02 0-.03.03-.42.27-.81.58-1.08.36-.31.78-.55 1.22-.72-1.3-.79-1.8-2.56-1.68-4.15s.74-3.08 1.18-4.6c.89-3.06.96-6.32.4-9.47-.62-.06-1.21-.52-1.44-1.14-.24-.62-.13-1.38.27-1.9.55-.71 1.51-.88 2.38-.91.87.03 1.82.19 2.38.91.4.52.51 1.27.27 1.9-.25.62-.82 1.08-1.45 1.14-.56 3.15-.48 6.41.4 9.47.44 1.52 1.06 3.01 1.19 4.6.12 1.59-.38 3.36-1.68 4.15.43.16.86.4 1.22.72.32.27.55.66.58 1.08z" fill="#963224"/></g><g><path d="m51.14 33.28c.01.01.01.01 0 .03.01.01.01.02 0 .03-.03.42-.27.81-.58 1.09-.36.31-.79.55-1.22.71 1.3.79 1.8 2.56 1.68 4.15-.13 1.59-.74 3.08-1.19 4.6-.89 3.06-.96 6.31-.4 9.47.63.06 1.21.52 1.45 1.14s.13 1.39-.27 1.9c-.56.71-1.52.88-2.39.91-.86-.03-1.83-.19-2.38-.91-.41-.51-.51-1.27-.27-1.9.24-.62.82-1.08 1.45-1.14.56-3.15.49-6.4-.4-9.47-.44-1.52-1.06-3.01-1.18-4.6-.13-1.59.38-3.36 1.68-4.15-.44-.16-.86-.4-1.22-.71-.32-.28-.56-.67-.58-1.09v-.03c-.01-.01-.01-.02 0-.03.03-.42.27-.81.58-1.08.36-.31.78-.55 1.22-.72-1.3-.79-1.81-2.56-1.68-4.15.12-1.59.74-3.08 1.18-4.6.89-3.06.96-6.31.4-9.47-.63-.06-1.21-.52-1.45-1.14s-.13-1.38.27-1.9c.55-.71 1.52-.88 2.38-.91.87.03 1.83.19 2.39.91.4.52.51 1.27.27 1.9-.25.62-.82 1.08-1.45 1.14-.56 3.15-.48 6.4.4 9.47.44 1.52 1.06 3.01 1.19 4.6.12 1.59-.38 3.36-1.68 4.15.44.16.86.4 1.22.72.31.27.55.66.58 1.08z" fill="#963224"/></g><g><path d="m46.41 50.99c-.03.2-.08.4-.12.61-.87 3.68-4.13 6.34-7.9 6.68-3.55.33-7.09.33-10.64 0-2.82-.26-5.37-1.82-6.82-4.13l-.01-.01c-.48-.77-.85-1.62-1.07-2.54-.05-.2-.08-.4-.12-.61-.46-2.7.58-5.54 2.55-7.52 1.92-1.93 3.93-3.86 5.91-5.72 1.87-1.75 3.35-4.39 2.53-6.82-.47-1.39-1.59-2.43-2.67-3.41-1.81-1.65-3.63-3.32-5.09-5.29-1.45-1.97-2.54-4.29-2.68-6.73 0-.03 0-.05-.01-.08-.17-3.51 2.56-6.52 6.06-6.88 4.5-.45 8.99-.45 13.49 0 3.5.35 6.23 3.37 6.06 6.88 0 .03 0 .05-.01.08-.14 2.44-1.22 4.76-2.68 6.73s-3.28 3.63-5.09 5.29c-1.07.98-2.2 2.03-2.66 3.41-.82 2.43.65 5.07 2.52 6.82 1.76 1.65 3.53 3.34 5.24 5.05.23.22.45.44.67.67 1.96 1.97 2.99 4.82 2.54 7.52z" fill="#f4eded"/></g><g><path d="m46.41 50.99c-.03.2-.08.4-.12.61-.87 3.68-4.13 6.34-7.9 6.68-3.55.33-7.09.33-10.64 0-2.82-.26-5.37-1.82-6.82-4.13.55.57 1.15 1.07 1.86 1.42 1.28.64 3 .63 3.99-.4.6-.63.86-1.53 1.52-2.09.94-.8 2.34-.64 3.56-.4 1.21.24 2.59.47 3.59-.25.96-.69 1.22-1.98 1.46-3.13.25-1.16.68-2.45 1.76-2.91.92-.39 2.01-.05 2.94-.38 1.15-.42 1.71-1.78 1.61-2.99-.01-.07-.01-.14-.03-.21.23.22.45.44.67.67 1.97 1.96 3 4.81 2.55 7.51z" fill="#d8d6d6"/></g><g><path d="m33.07 58.76c-1.78 0-3.57-.08-5.34-.24-3.97-.36-7.23-3.12-8.11-6.87-.05-.21-.09-.41-.13-.62-.45-2.69.55-5.65 2.62-7.73 1.74-1.75 3.67-3.62 5.92-5.73 1.72-1.61 3.27-4.18 2.46-6.56-.46-1.36-1.6-2.39-2.6-3.31-1.79-1.63-3.64-3.32-5.12-5.32-1.66-2.24-2.6-4.62-2.73-6.86v-.08c-.18-3.62 2.58-6.76 6.28-7.13 4.49-.45 9.05-.45 13.54 0 3.7.37 6.45 3.51 6.28 7.13v.07c-.13 2.25-1.07 4.62-2.73 6.87-1.49 2.01-3.33 3.69-5.12 5.32-1 .92-2.14 1.95-2.6 3.31-.81 2.39.74 4.96 2.46 6.56l.56.53c.1.09.1.25.01.34-.09.1-.25.1-.35.01l-.56-.53c-1.83-1.71-3.47-4.47-2.59-7.08.5-1.48 1.69-2.56 2.73-3.51 1.77-1.61 3.6-3.28 5.06-5.25 1.6-2.17 2.51-4.45 2.64-6.6v-.07c.16-3.37-2.4-6.28-5.84-6.62-4.46-.45-8.98-.45-13.44 0-3.44.35-6 3.26-5.84 6.62v.07c.12 2.15 1.04 4.44 2.64 6.6 1.46 1.97 3.29 3.64 5.06 5.25 1.05.96 2.24 2.04 2.73 3.52.88 2.61-.76 5.36-2.59 7.08-2.24 2.1-4.17 3.97-5.9 5.71-1.96 1.97-2.91 4.77-2.48 7.31.03.2.07.4.12.59.84 3.54 3.93 6.15 7.68 6.49 3.52.32 7.08.32 10.59 0 .9-.08 1.79-.3 2.63-.65.12-.05.27.01.32.13s-.01.27-.13.32c-.89.37-1.82.6-2.77.69-1.79.16-3.58.24-5.36.24z"/></g><g><path d="m24.82 22.94c2.66.19 5.43-.22 7.97-1.07 1.86-.62 3.67-1.53 5.63-1.63.7-.04 1.41.04 2.06.29.42.16.94.55 1.28.85-5.22 4.37-10.88 4.75-16.94 1.56z" fill="#d3dc5e"/></g><g><g><path d="m31.34 18.26c-1.13 2.08-4.37 2.33-6.17 1.06-.53-.37-.92-.9-1.2-1.49-.32-.69-.48-1.47-.47-2.19.01-1.44.55-2.83 1.34-4.03.19.86.94 1.51 1.75 1.88s1.69.53 2.53.8c.48.16.96.37 1.37.67.31.21.57.48.77.8.54.85.48 1.75.08 2.5z" fill="#d3dc5e"/></g><g><path d="m31.34 18.26c-1.13 2.08-4.37 2.33-6.17 1.06-.53-.37-.92-.9-1.2-1.49.33.25.79.35 1.15.14.27-.16.45-.48.76-.55.38-.1.74.22 1 .51.27.29.61.61 1 .51.5-.13.63-.89 1.13-1.03.29-.08.57.07.87.08.63.01 1.08-.68 1.06-1.31-.02-.44-.2-.85-.42-1.23.31.21.57.48.77.8.51.86.45 1.76.05 2.51z" fill="#c6c945"/></g><g><path d="m27.39 16.19c3.48 1.48 6.12 5.27 5.95 9.09-.81-3.71-2.96-6.77-5.95-9.09z" fill="#b2b234"/></g><g><path d="m42.07 15.51c-.05.19-.1.38-.17.56v.01c-.46 1.31-1.39 2.55-2.69 3.06-2.34.92-5.87-.24-6.54-2.86-.21-.78-.11-1.61.41-2.34.09-.14.21-.29.35-.42.72-.71 1.77-.96 2.78-1.04s2.03-.01 3.03-.2 2-.7 2.45-1.61c.53 1.55.76 3.24.38 4.84z" fill="#d3dc5e"/></g><g><path d="m41.9 16.08c-.46 1.31-1.39 2.55-2.69 3.06-2.34.92-5.87-.24-6.54-2.86-.21-.78-.11-1.61.41-2.34-.05.48-.08.98.07 1.44.16.5.57.96 1.09 1 .39.03.8-.18 1.18-.05.37.13.55.54.75.89.19.35.52.71.91.63.35-.07.55-.48.88-.61.43-.18.88.13 1.32.25.72.19 1.48-.14 2.01-.64.23-.24.43-.5.61-.77z" fill="#c6c945"/></g><g><path d="m31.65 20.07c.99-3.25 4.33-5.77 7.74-5.83-3.23 1.03-5.87 3.01-7.74 5.83z" fill="#b2b234"/></g></g><g><path d="m44.06 47.74c-7.79 3.09-15.25 3.05-22.37-.1.31-.41.49-.41 1.07-.55 1.05-.26 2.27-.53 3.49-.9 3.14-.94 6.26-2.53 6.28-6.14.01-1.32.07-2.64.1-3.95.06-2.12.08-4.35-.91-6.23-.68-1.3-1.79-2.31-2.88-3.28l-4.03-3.64c2.69.94 5.84 1.15 8.66.74.01-.01.02-.01.03-.01.16-.03.31-.05.46-.08.61-.1 1.21-.22 1.81-.36 2.03-.47 4.02-1.14 5.97-1.84-.34 1.48-1.33 2.67-2.5 3.68-.27.23-.54.46-.82.67l-.01.01c-.07.06-.14.11-.21.16-.21.16-.43.32-.65.49-1.36 1.01-2.73 2.08-3.49 3.59-.79 1.56-.8 3.38-.79 5.13 0 1.56 0 3.11.01 4.66 0 1.08.01 2.21.52 3.16.59 1.1 1.75 1.78 2.94 2.16.03.01.07.02.1.03 1.22.37 2.51.5 3.74.86 1.24.33 2.74.71 3.48 1.74z" fill="#c6c945"/></g><g><path d="m41.75 21.38c-.34 1.48-1.33 2.67-2.5 3.68-.3-.1-.55-.31-.64-.61-.06-.18-.05-.38-.08-.57s-.11-.39-.28-.48c-.16-.08-.35-.05-.51.03s-.31.18-.47.25c-.31.14-.69.14-1-.01-.2-.1-.36-.25-.48-.44 2.02-.47 4.01-1.14 5.96-1.85z" fill="#b2b234"/></g><g><g><path d="m38.43 25.74c-.07.06-.14.11-.21.16-.21.16-.43.32-.65.49-.06-.01-.12-.02-.18-.03-.53-.12-1-.48-1.24-.97l-.07-.14c-.08-.17-.15-.34-.26-.37-.07-.02-.2.02-.33.12l-.11.09c-.12.1-.26.2-.43.27-.55.19-1.12-.21-1.33-.69-.14-.32-.16-.66-.14-.98.01-.01.02-.01.03-.01.16-.03.31-.05.46-.08-.02.3-.02.61.1.87.12.28.44.52.72.42.09-.03.19-.11.29-.19.05-.03.08-.07.13-.1.26-.2.52-.26.76-.19.32.09.46.39.57.63l.06.13c.18.35.52.63.91.71.3.07.64.02.92-.14z" fill="#b2b234"/></g></g><g><path d="m44.06 47.74c-7.79 3.09-15.25 3.05-22.37-.1.31-.41.49-.41 1.07-.55 1.05-.26 2.27-.53 3.49-.9.63.76 1.84.96 2.67.41.38-.25.71-.66 1.17-.72.95-.14 1.76 1.24 2.64.86.59-.25.76-1.16 1.39-1.25.61-.08 1.08.71 1.69.64.48-.06.72-.59.94-1.04.03.01.07.02.1.03 1.22.37 2.51.5 3.74.86 1.23.35 2.73.73 3.47 1.76z" fill="#ffcd3b"/></g><g><path d="m44.43 52.25c-.18 1.5-.87 3.02-2.15 3.84-1.06.67-2.68 1.14-3.93 1.23-2.2.16-3.8.1-6 .26-1.86.14-4.04-.09-5.87-.49-1.31-.29-2.44-.87-3.29-1.78-.35-.36-.64-.77-.9-1.24-.08-.14-.14-.28-.21-.42-.13-.28-.23-.56-.32-.85-.1-.31-.17-.63-.23-.94-.23-1.36-.11-2.79.16-4.21 2.5.34 5.07.55 7.72.65.98.05 1.98.07 2.98.07.16.01.33.01.5.01 3.59 0 7.31-.21 11.17-.63.04.22.08.44.12.66.22 1.26.4 2.56.25 3.84z" fill="#fcb910"/></g><g><g><path d="m32.89 48.37c-.08.76-.42 1.49-.94 2.04-.74.77-1.86 1.17-2.92 1.05-.22-.03-.44-.08-.66-.12-.19-.04-.38-.08-.57-.11-.44-.05-.79 0-1.04.17-.28.19-.44.52-.61.87-.08.18-.17.36-.27.52-.44.72-1.24 1.21-2.07 1.29-.08.01-.16.01-.24.01-.53 0-1.06-.16-1.5-.45-.13-.28-.23-.56-.32-.85.05 0 .1.03.14.07.47.51 1.19.79 1.88.72.68-.07 1.34-.47 1.7-1.05.1-.15.18-.32.25-.48.19-.39.38-.8.77-1.06.35-.24.81-.33 1.37-.25.2.03.4.07.61.12.2.05.41.09.62.11.91.11 1.87-.24 2.5-.91.44-.46.72-1.07.79-1.71.17.02.34.02.51.02z" fill="#efa707"/></g></g><g><path d="m29.41 48.29c.04.42-.08.85-.38 1.14-.36.33-.89.4-1.38.35-.48-.05-.96-.21-1.44-.27-.49-.06-1.02 0-1.39.33-.65.57-.52 1.72-1.2 2.26-.43.35-1.07.33-1.58.08-.19-.09-.35-.2-.51-.33-.23-1.36-.11-2.79.16-4.21 2.5.34 5.07.55 7.72.65z" fill="#efa707"/></g><g><path d="m44.43 52.25c-.18 1.5-.87 3.02-2.15 3.84-1.06.67-2.68 1.14-3.93 1.23-2.2.16-3.8.1-6 .26-1.86.14-4.04-.09-5.87-.49-1.31-.29-2.44-.87-3.29-1.78 1.14 1 2.96 1.45 4.19.48.63-.5 1.05-1.27 1.8-1.6.89-.4 1.91-.02 2.83.32s2.01.62 2.81.07c1.04-.7 1.17-2.49 2.38-2.79.98-.25 2.12.66 2.92.07.62-.45.53-1.48 1.14-1.94.48-.37 1.17-.22 1.75-.4.54-.16.94-.6 1.17-1.12.22 1.27.4 2.57.25 3.85z" fill="#efa707"/></g><g><path d="m39.65 51.5c-.46 0-.88.22-1.18.58s-.49.85-.49 1.4c0-1.09-.75-1.98-1.67-1.98.46 0 .88-.22 1.18-.58s.49-.85.49-1.4c0 .55.19 1.04.49 1.4s.72.58 1.18.58z" fill="#fff"/></g><g><path d="m50.67 9.63c-.46 0-.88.22-1.18.58s-.49.85-.49 1.4c0-1.09-.75-1.98-1.67-1.98.46 0 .88-.22 1.18-.58s.49-.85.49-1.4c0 .55.19 1.04.49 1.4.3.35.72.58 1.18.58z" fill="#fff"/></g><g><path d="m28.65 18.15c-.23 0-.44.11-.59.29s-.25.43-.25.7c0-.55-.37-.99-.84-.99.23 0 .44-.11.59-.29s.24-.43.24-.7c0 .27.09.52.25.7s.37.29.6.29z" fill="#fff"/></g><g><path d="m36.43 53.68c-.25 0-.47.12-.63.31s-.26.45-.26.74c0-.58-.4-1.05-.89-1.05.25 0 .47-.12.63-.31s.26-.45.26-.74c0 .29.1.55.26.74s.39.31.63.31z" fill="#fff"/></g><g><g><path d="m29.56 39.25c.39.26-.13 1.6-1.32 2.73-1.18 1.13-2.41 1.65-2.71 1.3-.31-.36.43-1.47 1.53-2.52s2.11-1.78 2.5-1.51z" fill="#fff"/></g><g><path d="m30.84 37.07c.18.07.18.52-.07.97-.24.45-.61.7-.78.58-.17-.11-.09-.52.13-.94.23-.41.52-.7.72-.61z" fill="#fff"/></g></g><g><g><path d="m20.1 60.14c-.07.46-1.3.67-2.75.4-1.45-.26-2.53-.89-2.43-1.35s1.32-.58 2.73-.32c1.41.27 2.51.81 2.45 1.27z" fill="#fff"/></g><g><path d="m22.41 60.46c-.02.2-.41.32-.86.26s-.79-.27-.76-.48c.03-.2.41-.31.86-.26.45.07.79.27.76.48z" fill="#fff"/></g></g><g><g><path d="m39.33 13.31c0 .47-.69.86-1.51 1.07-.82.2-1.61.18-1.83-.24-.22-.41.38-1.15 1.42-1.41 1.04-.25 1.92.12 1.92.58z" fill="#fff"/></g><g><path d="m40.86 13.38c-.03.2-.28.33-.56.31s-.51-.19-.51-.39.25-.37.56-.35c.32.03.54.24.51.43z" fill="#fff"/></g></g></g></svg>