<svg id="Layer_1" enable-background="new 0 0 512 512" height="512" viewBox="0 0 512 512" width="512" xmlns="http://www.w3.org/2000/svg"><g><path d="m188.0013 314.0586c-1.0416-1.8714-1.9083-3.62-2.9803-5.232-.3022-.4545-1.2596-.8062-1.8261-.704-23.444 4.228-46.5311 1.5168-69.5185-3.4418-13.5707-2.9273-26.8945-6.7343-39.7572-11.9257-4.9365-1.9924-9.8503-4.5634-14.0242-7.8294-15.3867-12.0401-28.9738-25.8401-39.2811-42.6173-6.2757-10.215-8.3922-21.3634-8.9063-33.2597-.4759-11.0135 3.3421-20.8168 6.3354-30.915 6.6338-22.3794 17.957-42.2837 32.62-60.3201 10.9625-13.4846 25.288-22.5183 41.0511-29.1446 18.1218-7.6178 36.4139-14.8757 54.8653-21.6552 45.502-16.7188 91.939-30.3032 139.5271-39.6774 12.4745-2.4573 25.1413-4.423 37.8108-5.3007 23.0399-1.5961 43.8002 5.463 62.751 18.5217 22.9526 15.8164 37.8819 37.0188 43.8091 64.2983 3.1982 14.7192.4276 28.9132-5.0116 42.6899-1.8432 4.6686-3.9247 9.2431-5.8822 13.8255 7.4557 2.3502 14.9239 4.4754 22.2307 7.0573 13.5171 4.7762 26.462 10.8349 38.1719 19.1721 5.0647 3.606 9.6308 7.9214 14.3322 12.0192.7665.668 1.2148 1.8298 1.5457 2.8492 3.8113 11.7442 5.3858 23.7802 5.0508 36.1362-.3133 11.5542-.3678 23.1081-2.7557 34.4893-4.7919 22.8385-17.6007 40.0694-36.8041 52.9071-26.357 17.6198-54.3838 31.9761-83.9677 43.3394-3.5894 1.3787-7.0321 3.1351-10.5942 4.5907-1.3685.5593-1.6225 1.2634-1.4661 2.7034 2.2602 20.8111-3.3095 39.3043-16.9868 55.1546-6.4322 7.4541-14.9684 12.1721-23.7336 16.3412-20.7912 9.8893-42.864 14.992-65.681 17.162-17.3794 1.6528-34.7002.5078-52.0157-1.132-1.9591-.1855-4.1098.0854-5.9757.7207-23.7991 8.1028-48.2401 11.965-73.3799 11.4641-15.7015-.3128-31.2319-1.8775-46.4842-5.8071-12.4755-3.2142-23.8776-8.7622-34.6802-15.653-.468-.2986-.9053-.804-1.1231-1.3132-6.4317-15.0401-12.327-30.2679-14.7336-46.5661-3.3413-22.6287 5.383-40.2419 22.8818-54.084 17.6004-13.9224 37.7833-22.5838 59.1314-28.7993 17.4565-5.0826 35.2521-8.4336 53.3731-10.0013 3.6536-.3161 7.313-.756 10.9714-.7721 3.5792-.0159 7.1606.4367 11.1103.7091zm-67.1053 14.4789.0515-.0557c-1.4239.4232-2.8478.8463-4.2717 1.2695 0 0 .0274-.0727.0276-.0698-.5003.0367-1.0232-.0087-1.4978.1217-20.7355 5.6981-40.1291 14.2248-57.1525 27.574-8.8378 6.9303-16.0094 15.3292-19.5576 26.1457-4.8571 14.8067 2.2915 31.9248 19.0364 41.1942l1.5918.8649c1.0747.6727 2.0988 1.4491 3.2319 2.0019 9.4083 4.5897 19.4555 6.9983 29.7761 8.1437 24.0716 2.6716 47.9561.8292 71.6786-3.6016 19.5-3.6421 38.4379-9.0217 55.8492-18.8704 12.0339-6.807 21.8749-15.8001 27.9524-28.4473 5.7173-11.8979 5.2199-23.1883-3.8023-33.3755-10.8119-12.2079-24.266-20.3323-39.7513-25.2138-6.7494-1.5669-13.4542-3.3707-20.2579-4.6484-11.9953-2.2526-23.9988-1.3141-35.8923.9043-8.1171 1.514-16.1552 3.4511-24.2285 5.1992-.9279.2877-1.8558.5756-2.7836.8634zm-64.3842 125.0107c5.8953 2.6202 11.7906 5.2404 17.6859 7.8607 9.0847 3.4153 18.5693 5.2177 28.1374 6.3289 14.9658 1.7381 30.0111 2.2972 45.0553 1.0695 16.664-1.3598 32.9811-4.5388 48.8555-9.8802 15.4899-5.2119 30.0467-12.2708 43.4092-21.7238 5.9756-4.805 11.9815-9.5734 17.8822-14.4685.6245-.518.8836-1.7802.8826-2.6966-.0046-4.1674.0099-8.3478-.3043-12.4992-.5541-7.3213-1.3424-14.6249-2.0326-21.9359-1.8238 2.3222-2.7711 4.9222-4.369 7.0286-4.0535 5.3435-8.3986 10.4657-12.627 15.6765-12.5337 11.2554-27.4032 18.2473-43.2679 23.2101-9.0259 2.8235-18.2721 4.9424-27.4191 7.3787-17.6609 3.1157-35.416 5.3009-53.3831 5.3553-11.109.0337-22.179-.5578-33.0826-2.8062-4.9918-1.0294-9.8951-2.4875-14.8386-3.7512-1.2978-.615-2.5734-1.2832-3.8972-1.836-7.0115-2.9283-13.2718-7.0211-18.8944-12.1102-1.439-1.3025-2.8542-2.6313-4.2806-3.9477-.1123-.0726-.2245-.1453-.3367-.2179.1049.0791.2099.1582.3148.2373.1551.8218.1915 1.6885.4835 2.4584 3.0565 8.0586 6.2685 16.0605 9.187 24.1683 1.2643 3.5126 3.5654 5.6922 6.8397 7.1011zm300.4188-54.6345c.5343-2.8355 1.1999-5.6538 1.5754-8.5102.77-5.8559.4607-11.6423-1.5254-17.2643-.3311 7.9227-3.8242 14.4786-8.5186 20.5348-4.7755 6.1606-10.7149 11.0517-17.2498 15.1711-17.8393 11.2455-37.1184 17.6059-58.4522 16.802-4.7268-.1781-9.8447-1.1893-12.4778 4.5207-.0358.0776-.0749.1538-.1125.2307-3.1121 2.512-6.2242 5.024-9.3354 7.5359-9.9708 7.5605-20.6274 14.0194-31.8487 19.6965 3.0464.4886 5.9965.7499 8.9523.8795 2.8735.1259 5.7528.117 8.6296.1673 2.5605.0088 5.1211.0305 7.6816.0241 15.1046-.0378 29.9445-2.1151 44.5888-5.7474 15.1724-3.7633 29.7817-8.8758 43.1946-17.1267 13.9272-8.567 21.4453-21.3407 24.8981-36.914zm58.4096-313.6663c-5.0734-10.7513-11.5815-20.4487-20.724-28.2107-7.52-6.9196-15.7782-12.8295-24.8694-17.4703-8.7825-4.4832-18.0085-7.7599-27.9005-8.8334-1.5987-.2559-3.202-.7559-4.7954-.7264-7.9353.1472-15.9388-.158-23.7885.7808-24.5794 2.9399-48.5817 8.8583-72.5121 15.0289-32.895 8.4821-65.2286 18.7614-97.0777 30.5609-18.1958 6.7412-36.4345 13.3533-53.9677 21.7838-16.1635 7.7719-29.4582 18.6647-39.9229 33.2965-12.3543 17.2737-21.4905 36.045-28.4064 56.0662-2.3938 6.9298-3.9326 13.7791-3.331 21.0527.2856 3.4534.8619 6.8828 1.3066 10.3231-.0128.2509-.0256.5019-.0384.7528.4675 1.9817.7972 4.0084 1.4259 5.9376 2.9411 9.0251 8.6283 16.3971 14.4714 23.6529 7.5269 9.3465 16.2689 17.4874 25.4691 25.1285 4.7843 3.9734 9.7093 7.8484 15.8905 9.5632.1928.1198.3857.2396.5785.3593.3406.0854.6812.1709 1.0218.2563.2893.1631.5602.3876.8705.4803 11.0973 3.3143 22.0895 7.0656 33.3313 9.7849 9.912 2.3977 20.0689 3.8811 30.1808 5.3269 10.1757 1.4549 20.4317.9558 30.6482.0589 2.31-.2029 4.6011-.6214 7.1265-.972-3.9436-9.9891-4.358-20.165-5.3739-30.2386-.0111-9.0642-.0221-18.1284-.0332-27.1926l-.0066-.0616c.2641-2.0413.5282-4.0826.7923-6.1239 1.5512-6.458 2.5187-13.1275 4.7673-19.3327 5.8228-16.0693 17.1421-27.9231 30.6579-37.8924 13.8566-10.2207 29.3743-17.0338 45.7153-22.0729 22.9616-7.0806 46.4137-10.5874 70.4924-9.1529 4.1798.249 8.3565.5484 12.5346.8251 2.8615.4078 5.7243.8063 8.584 1.2256 4.7954.7031 9.5891 1.4183 14.3832 2.1309 7.9863 1.187 15.9724 2.3759 23.9585 3.564 6.9364 1.3368 13.8648 2.7175 20.8121 3.995 4.6585.8567 4.6697.7909 6.5533-3.7655.2283-.5523.4612-1.1031.709-1.6469 3.5794-7.8538 6.6998-15.8862 8.1125-24.4308 2.5564-15.4619-.3113-30.0427-7.6458-43.8115zm66.7478 113.8127c-5.8969-3.8701-11.7939-7.7403-17.6908-11.6104-5.0429-2.5016-9.9853-5.2361-15.1462-7.4643-21.6725-9.3569-44.5763-14.1442-67.7625-17.7089-15.4538-2.3759-30.9614-4.4035-46.4509-6.5442-2.2729-.3141-4.576-.4416-6.87-.5625-2.2869-.1206-4.58-.1244-7.5436-.1956.8662.5083 1.0623.6602 1.2839.747.9545.374 1.915.7328 2.8759 1.0903 14.0829 5.2392 27.6127 11.5243 39.4882 20.9265 15.3817 12.1781 28.0441 26.4997 35.7214 44.8428 9.6636 23.0885 13.9249 47.0998 12.6772 72.0929-1.3014 13.5358-5.0381 26.3375-11.5457 38.304-5.0662 5.169-10.0191 10.4561-15.2415 15.4621-3.0745 2.9471-6.5447 5.4884-9.8945 8.1395-4.3825 3.4684-8.8218 6.8651-13.4895 10.4889.107.2462.4333.9973.799 1.8387.5576-.2124.9621-.3232 1.3262-.5118 6.2111-3.2173 12.2245-6.9078 18.66-9.5835 20.578-8.5559 40.2327-18.8764 59.2777-30.3687 9.7076-5.8579 19.3488-11.8374 27.5729-19.8544 12.478-12.1638 19.2364-27.0742 21.2262-44.1109 1.0685-9.1487 1.1354-18.425 1.4126-27.651.1327-4.4168.1051-8.9127-.5676-13.2617-.9613-6.2147-2.5586-12.3326-3.9545-18.4759-.1375-.6052-.6892-1.1807-1.1775-1.6301-1.6306-1.5008-3.3197-2.9376-4.9864-4.3988zm-196.9584-41.2691c-6.5105 1.4042-13.1053 2.5025-19.5161 4.2689-20.6293 5.6839-39.9941 13.9832-56.5752 27.9574-15.0473 12.6815-24.3173 28.3952-26.4085 48.1889-1.3626 12.8976-1.009 25.7602-.2643 38.6653.6377 11.0499 3.8093 21.2936 8.7138 31.1082.8762 1.7534 1.7788 3.5701 2.1878 5.4617.533 2.4648 1.7027 2.9012 3.7901 1.9363 6.5154-.7707 13.0123-1.9011 19.55-2.2379 14.1172-.7274 28.1758.449 42.1686 2.3066 15.1771 2.0148 30.1984 4.9186 44.7256 9.7819 8.4794 2.8387 16.6647 6.5558 24.9823 9.8778 5.2946 3.2875 10.7325 6.3682 15.8488 9.913 6.9635 4.8244 12.5167 11.058 16.6699 18.688.5039-.3901.808-.6592 1.1437-.8804 6.4614-4.2577 12.8883-8.4959 18.2679-14.2155 4.6158-4.9076 10.2465-8.9226 14.502-14.0945 8.9944-10.9314 12.2631-24.3187 13.9078-37.9847 1.7511-14.5505.2507-29.0352-3.0697-43.2775-4.8759-20.914-12.03-40.7775-26.2753-57.4867-13.8156-16.2051-30.8415-27.6128-50.6286-35.1275-2.9844-1.2244-5.932-2.5514-8.965-3.6405-2.3907-.8585-4.9386-2.1584-7.3266-1.9893-9.1627.6484-18.2891 1.8101-27.429 2.7805zm-68.439 164.9898c10.4768 4.8672 20.061 11.0914 28.4255 19.0782 5.6315 5.3771 10.8131 11.4572 12.4154 19.114 2.7788 13.2787 4.7248 26.7449 6.6289 40.1879.9658 6.8187 1.078 13.7583 1.6033 21.0199 5.4313-.3715 10.8719-.6452 16.2933-1.1321 18.8665-1.6945 35.8647-8.397 51.157-19.4658 6.1514-4.4525 11.5107-9.7443 15.2048-16.4695 2.233-4.0651 4.4848-8.4424 3.1627-13.1375-1.3031-4.6275-3.6142-8.9711-5.4831-13.4393-1.3494-3.1721-3.037-6.0199-5.9114-8.1723-8.7686-6.5659-18.4434-11.4441-28.6201-15.2879-29.4409-11.12-60.0981-15.4773-91.4083-15.9643-3.4421-.0535-6.8895.226-10.3344.3511-.0344.1937-.0689.3873-.1033.581 2.3232.9121 4.6464 1.8244 6.9697 2.7366z" fill="#301f0e"/><path d="m341.8463 30.7329c9.892 1.0736 19.118 4.3502 27.9005 8.8334 9.0913 4.6408 17.3495 10.5507 24.8691 17.4702-.2594.8982-.4294 1.8344-.7927 2.6883-1.616 3.7988-3.2874 7.5741-4.9383 11.3577-.0349-.5771.1222-1.2849-.1572-1.6959-.306-.4501-1.1385-.9753-1.5198-.8405-.5822.2059-1.3253.9354-1.3476 1.47-.0221.5289.6661 1.3384 1.2274 1.5627.4619.1846 1.1942-.3072 1.8067-.4992-.8322 2.2925-1.4788 4.6747-2.5338 6.8595-2.4635 5.1017-5.1234 10.1087-7.7036 15.1541-1.2117-1.2143-2.2535-2.7132-3.6813-3.5655-1.5246-.91-2.6976.174-2.2262 1.9363.5691 2.1277 1.7783 3.8073 4.0846 4.3906-.1946.8936-.1879 1.8993-.6137 2.6643-8.5768 15.4092-18.9078 29.5524-30.7797 42.5883-1.9828 2.1772-3.7177 4.5801-5.5671 6.8788-4.1782-.2762-8.3549-.5756-12.5347-.8246-24.0787-1.4345-47.5308 2.0723-70.4924 9.1529-16.341 5.039-31.8587 11.8522-45.7153 22.0729-13.5158 9.9693-24.8351 21.8231-30.6579 37.8924-2.2486 6.2053-3.2161 12.8748-4.767 19.3322-.264 2.0411-.5283 4.0827-.7926 6.1244 0 0 .0066.0616.0059.0608-4.5961 1.5367-9.1872 3.0878-13.7881 4.6092-11.2537 3.7215-22.491 7.4954-33.7864 11.0861-2.211.7029-4.8117 1.3571-6.9619.8607-7.4408-1.7177-14.8551-3.6713-22.1055-6.0625-9.1224-3.0086-18.2617-6.105-27.0544-9.9411-13.1257-5.7264-25.9052-12.2413-38.9397-18.1845-4.1473-1.891-8.6375-3.0298-12.9708-4.5128.0128-.2509.0256-.5019.0383-.7535.4781-2.2315.6229-4.6032 1.4956-6.6673 2.91-6.8828 5.7739-13.816 9.2324-20.428 4.0188-7.6833 8.5458-15.1091 13.0466-22.5288 2.8656-4.7241 6.0844-9.234 9.1448-13.84.3305-.6426.6611-1.2852.9916-1.9278.9111-.8137 2.0003-1.497 2.7065-2.4608 9.7707-13.3342 21.3336-24.8176 35.0761-34.0446 11.7201-7.8691 24.1391-14.481 37.1895-19.8259 11.0659-4.5321 22.1831-8.9834 33.4686-12.9234 14.4934-5.0599 29.1283-9.7328 43.7982-14.2614 8.8747-2.7396 17.9248-4.9147 26.9081-7.2979 8.155-2.1634 16.3334-4.2391 24.4888-6.4012 9.308-2.4676 18.6633-4.7823 27.8872-7.5349 12.9148-3.854 25.7301-8.0418 38.5819-12.1059 6.1669-1.9499 12.3199-3.9438 18.4793-5.9178zm-44.0741 26.3412c.0253.0709.0461.1438.0772.2121.0322.0707.0744.1369.1123.205-.071-.1327-.142-.2654-.2131-.398-.6156-2.212-1.0397-4.5091-1.963-6.5841-.2782-.6252-1.9436-.633-2.9736-.9237.0153 1.0666-.4023 2.4992.13 3.1285 1.388 1.6411 3.1922 2.9302 4.8302 4.3602zm-10.6994 81.2819c1.4427-1.695 2.7642-2.5693 2.9883-3.6675.349-1.7103-1.0103-3.0982-2.6683-2.8853-1.1014.1414-2.7946 1.466-2.863 2.3646-.0819 1.0742 1.2866 2.2589 2.543 4.1882zm-177.6735 90.402c.1199-2.872-.7076-4.4811-2.5729-4.7628-1.855-.2802-1.9232 1.5285-2.0148 2.8567-.1197 1.7368.3219 3.5077 2.2943 3.6003.8863.0416 1.8392-1.3336 2.2934-1.6942zm111.6357-88.4753c-1.4782-1.4186-2.33-2.8852-3.3154-2.9812-.8228-.0801-2.4048 1.3367-2.5746 2.2835-.2739 1.5277.3558 3.5276 2.3437 3.4916.987-.0178 1.9478-1.4719 3.5463-2.7939zm101.8094-50.4468c-.2102.1938-.4205.3876-.6308.5814.8149 1.4121 1.4005 3.0684 2.5379 4.1372.6026.5662 2.5325.5691 3.2146.0203 1.3173-1.0598.4126-2.4455-.7298-3.0903-1.3455-.7593-2.9178-1.1168-4.3919-1.6486zm-170.0029 59.9069c1.2317-1.0469 2.0986-1.7837 2.9655-2.5204-.9565-.7506-1.8126-1.8613-2.8943-2.1632-1.4443-.403-3.2357.1333-3.1328 1.929.0489.853 1.7248 1.6127 3.0616 2.7546zm64.312-29.537c-1.2989 1.4218-2.692 2.3428-2.5649 2.9402.2263 1.0636 1.2173 2.2377 2.2061 2.7386.4272.2164 2.355-1.1379 2.3455-1.7596-.0163-1.076-1.0111-2.1371-1.9867-3.9192zm-23.1982-39.5529c1.1012-1.4978 2.1019-2.2506 2.1646-3.0748.1188-1.5601-.8018-2.9546-2.5304-2.7829-.7842.0779-2.1573 1.4295-2.043 1.918.276 1.1803 1.2697 2.1928 2.4088 3.9397zm-28.8966 22.0474c-1.3972 1.2164-2.3333 2.0314-3.2695 2.8464.7208.815 1.6512 2.416 2.1214 2.2907 1.1844-.3158 2.2678-1.3158 3.121-2.2809.1491-.1686-1.0199-1.5025-1.9729-2.8562zm183.9769 21.6785c-1.3976-1.6525-2.469-2.9193-3.5405-4.1861-.5819.5835-1.5055 1.082-1.6758 1.7677-.3727 1.5005 1.4995 4.0472 2.8401 3.9628.6187-.039 1.1955-.7449 2.3762-1.5444zm-258.3854 55.0073c-1.504-1.3695-2.2744-2.6168-3.1694-2.7138-.7209-.0781-2.2541 1.2479-2.24 1.9264.0205.988.9234 2.439 1.7989 2.7698.6549.2475 1.8602-.9612 3.6105-1.9824zm137.8746-72.0655c1.2088 1.4166 1.8482 2.7018 2.8515 3.1258.5381.2274 1.702-1.0262 2.5835-1.6114-.757-1.1224-1.4018-2.364-2.3632-3.2693-.1984-.1868-1.5765.8792-3.0718 1.7549zm113.9718-46.5567c-1.1991 1.1392-2.2383 1.6547-2.3863 2.3579-.4007 1.9033 1.0576 2.8608 2.6046 3.0529.7468.0928 1.6327-.9336 2.4556-1.4532-.7686-1.1377-1.5372-2.2753-2.6739-3.9576zm-40.0901 73.2966c-.4836 2.2302-.9805 4.347 1.4035 5.518.3422.1681 1.6254-.7689 1.8996-1.4318.6985-1.688-.7119-3.3759-3.3031-4.0862zm-44.5628-11.6792c-1.4932-1.1673-2.2995-2.2779-3.1688-2.3296-.7329-.0436-2.2311 1.2361-2.1598 1.7636.1253.9263 1.0708 2.2291 1.8999 2.4281.7448.1789 1.7947-.9133 3.4287-1.8621zm-58.4301-30.0278c-1.5326-1.1445-2.422-2.3193-3.2053-2.2524-.8104.0692-1.9241 1.2522-2.1208 2.1247-.1217.54 1.1783 1.9361 1.9143 1.9933.8526.0664 1.7866-.9142 3.4118-1.8656zm-47.3454 130.7131c1.2242 1.1875 1.932 2.1954 2.8984 2.6353.3331.1517 1.9884-1.3515 1.8704-1.6859-.4024-1.1395-1.3259-2.095-2.0504-3.1208-.7156.5717-1.4313 1.1433-2.7184 2.1714zm-64.5057-32.7878c-1.5343-1.1353-2.3628-2.2027-3.2544-2.2584-.6649-.0415-1.9778 1.2327-1.9687 1.9069.0099.7322 1.1365 1.9035 1.9231 2.0406.7566.132 1.701-.8134 3.3-1.6891zm143.9191-100.3201c1.0949-1.3557 2.1774-2.1311 2.2742-3.0146.0643-.5872-1.3614-1.9383-1.9742-1.8563-.8895.119-2.0452 1.0956-2.3189 1.9519-.177.5542 1.0184 1.5467 2.0189 2.919zm70.4161-4.9371c-1.2656-1.1964-1.9629-2.3783-2.683-2.3923-.7513-.0147-2.05 1.0285-2.1403 1.7334-.0898.7012.9021 2.0092 1.6471 2.211.6793.1839 1.6636-.7585 3.1762-1.5521zm20.6276-30.2695c1.1192-.8953 1.9364-1.5491 2.7536-2.2028-.7482-.567-1.5049-1.6001-2.2425-1.5867-.9941.0181-1.9734.8423-2.9591 1.3205.7004.7063 1.4008 1.4127 2.448 2.469zm56.2013 3.6322c-1.6488-.9862-2.5247-1.8622-3.4849-1.9671-.7003-.0765-1.5117.8633-2.2736 1.3501.9201.7212 1.7531 1.6773 2.7971 2.0642.5205.1929 1.4272-.6558 2.9614-1.4472zm-247.431 133.6077c-1.3292-1.0548-2.0645-2.0745-2.8863-2.1496-.6348-.058-1.3778 1.0681-2.0727 1.6677.7177.8006 1.3114 1.8713 2.2078 2.2826.4186.1921 1.4226-.8916 2.7512-1.8007zm22.6938 14.6963c1.0414-1.4686 2.0314-2.2542 1.9623-2.9319-.0753-.7384-1.1328-1.3766-1.7622-2.0585-.6381.6407-1.6739 1.2134-1.7982 1.9418-.1153.6757.7428 1.5176 1.5981 3.0486zm122.0326-112.9754c-1.2191-1.0847-1.9496-2.2053-2.5152-2.1274-.8423.1159-1.9116.9467-2.2111 1.7306-.1726.4517.9138 1.9254 1.5527 2.0071.7721.0986 1.6701-.789 3.1736-1.6103zm-191.5272 134.8998c-1.2809-1.1654-1.9689-2.2772-2.62-2.256-.747.0243-1.8537.9459-2.0547 1.6823-.1385.5075.8939 1.7674 1.5926 1.9449.6571.167 1.5628-.6443 3.0821-1.3712zm39.7291-74.5181c-.9367 1.0741-2.058 1.8932-1.9243 2.307.2509.7769 1.1486 1.6659 1.9285 1.8432.5644.1283 1.3729-.8172 2.0726-1.2839-.5869-.8099-1.1737-1.6198-2.0768-2.8663zm65.5723-30.1208c-.9661 1.2658-1.8835 1.9515-1.9173 2.6783-.0262.5638 1.1121 1.7041 1.623 1.6447.7126-.0829 1.6598-.9491 1.8643-1.6639.1486-.5193-.7429-1.3361-1.57-2.6591zm-5.4012 36.6672c-1.2681-1.0223-1.9264-1.9352-2.691-2.035-.5082-.0664-1.6614 1.0526-1.6351 1.5981.0327.6782.8858 1.6642 1.5692 1.8547.5564.155 1.3846-.6655 2.7569-1.4178zm102.929-94.8354c-.864-.7949-1.3951-1.6719-1.9629-1.6964-.5659-.0245-1.7036.8971-1.6447 1.2427.1242.729.7467 1.6227 1.402 1.9129.3622.1604 1.2043-.7632 2.2056-1.4592zm71.1961 14.2121c-.9529-.7587-1.6902-1.7129-2.0975-1.5883-.6941.2124-1.1808 1.1026-1.7546 1.708.5715.5157 1.1131 1.3898 1.7233 1.4406.5479.0456 1.1712-.8135 2.1288-1.5603zm-160.3577 91.5045c-.799.78-1.2887 1.258-1.7784 1.736.6227.5325 1.1758 1.2759 1.8958 1.5134.3925.1295 1.0681-.5989 1.616-.9403-.5094-.6787-1.0188-1.3573-1.7334-2.3091zm57.5031-110.9142c-1.1076-.6711-1.7965-1.4228-2.3874-1.3525-.591.0703-1.0842.9627-1.6202 1.4948.5589.5052 1.1065 1.3945 1.6797 1.4113.6129.0179 1.2499-.7868 2.3279-1.5536zm102.9606-14.5099c-.8479-.798-1.3217-1.5988-1.8582-1.6432-.4805-.0398-1.3526.6912-1.4504 1.1981-.0831.431.6252 1.3656 1.1043 1.4594.5226.1023 1.1844-.5069 2.2043-1.0143zm-.1958 8.7319c-.3896.1978-.7793.3956-1.1689.5933-.4089.4351-.8178.8702-1.2267 1.3053.5401.4423 1.0297 1.1167 1.6373 1.249.4373.0952 1.4736-.5374 1.4702-.8365-.009-.773-.4458-1.5411-.7119-2.3111z" fill="#e6af5c"/><path d="m328.4837 335.1059c-8.3176-3.3219-16.503-7.0391-24.9823-9.8778-14.5272-4.8633-29.5485-7.7671-44.7256-9.7819-13.9928-1.8576-28.0513-3.0341-42.1686-2.3066-6.5378.3369-13.0346 1.4673-19.5501 2.2378-.3387-8.5689-.6945-17.137-1.0103-25.7066-.2252-6.1104-.6447-12.2271-.5393-18.3334.2092-12.1149 3.8313-23.4371 8.5834-34.4622 5.2101-12.0877 12.7487-22.5609 22.2694-31.5449 9.9583-9.3969 21.4724-16.667 34.0847-21.8147 12.3819-5.0537 25.1645-9.1258 37.7713-13.6287.3232.0339.6463.0678.9695.1017.7478.6839 1.4523 1.4236 2.2498 2.0435 15.0009 11.6604 28.8158 24.4409 40.0656 39.935 10.8079 14.8855 16.402 31.4064 16.0936 49.6345-.1487 8.7925-1.5907 17.6606-3.371 26.3042-2.3663 11.4886-7.8352 21.7868-14.4288 31.4342-3.6486 5.3386-7.5331 10.5159-11.3113 15.7659z" fill="#feec5d"/><path d="m123.6796 327.6739c8.0734-1.748 16.1115-3.6851 24.2285-5.1992 11.8935-2.2184 23.897-3.1569 35.8923-.9043 6.8037 1.2777 13.5085 3.0815 20.2573 4.648.5367 1.0437.9892 2.1428 1.6254 3.1227 3.9754 6.1235 7.1034 12.5712 8.7757 19.7599 2.0743 8.9168 1.0465 17.1873-3.7854 25.0326-5.138 8.3422-12.0004 14.9493-19.6535 20.9681-11.6242 9.1419-24.4666 15.7427-38.5176 20.2446-13.6904 4.3863-27.7169 7.0301-41.9179 8.97-12.527 1.7112-25.0838 2.2796-37.7012 1.3816-2.9871-.2126-5.9766-.3915-8.9649-.5859-3.129-5.16-6.6417-10.1302-9.3072-15.5194-5.5829-11.2877-5.9611-22.6762.4649-33.9508 6.073-10.6552 14.5282-18.9758 24.3499-26.1644 9.7101-7.1069 20.2429-12.5899 31.3264-17.1298 2.0107-.8236 3.9687-1.7761 5.951-2.6691 0 0-.0274.0727-.0271.0732 1.424-.423 2.8477-.8465 4.2713-1.2701 0 0-.0515.0557-.0513.0559.928-.2876 1.8557-.5756 2.7834-.8636z" fill="#feec5d"/><path d="m328.4837 335.1059c3.7782-5.25 7.6628-10.4274 11.3114-15.7659 6.5936-9.6475 12.0625-19.9456 14.4288-31.4342 1.7803-8.6436 3.2223-17.5116 3.371-26.3042.3084-18.2281-5.2857-34.749-16.0936-49.6345-11.2498-15.4941-25.0646-28.2745-40.0656-39.935-.7975-.6199-1.502-1.3596-2.2492-2.0438.5979-.305 1.1656-.7068 1.7972-.8992 5.2199-1.5895 10.4553-3.1281 15.6787-4.7065 4.0685-1.2294 8.1264-2.4938 12.189-3.7426 19.7858 7.5147 36.8117 18.9223 50.6273 35.1275 14.2453 16.7092 21.3995 36.5727 26.2753 57.4867 3.3204 14.2423 4.8208 28.7269 3.0697 43.2775-1.6447 13.666-4.9134 27.0533-13.9078 37.9847-4.2555 5.1719-9.8861 9.1869-14.502 14.0945-5.3796 5.7196-11.8065 9.9579-18.2679 14.2155-.3357.2212-.6398.4903-1.1437.8804-4.1532-7.63-9.7063-13.8636-16.6699-18.688-5.1163-3.5446-10.5542-6.6254-15.8487-9.9129z" fill="#fedd08"/><path d="m412.6707 294.674c1.2476-24.9936-3.0138-49.0049-12.6773-72.0934-7.6773-18.3431-20.3398-32.6647-35.7214-44.8428-11.8755-9.4022-25.4053-15.6874-39.4882-20.9265-.9609-.3575-1.9214-.7163-2.8759-1.0903-.2216-.0868-.4177-.2387-1.2839-.747 2.9636.0712 5.2567.075 7.5436.1956 2.2941.121 4.5971.2484 6.87.5625 15.4895 2.1407 30.9971 4.1683 46.4509 6.5442 23.1862 3.5648 46.0901 8.352 67.7625 17.7089 5.1609 2.2282 10.1033 4.9627 15.1459 7.4645-2.0504 7.718-4.4622 15.364-6.016 23.1805-.9441 4.7489-2.7768 9.2973-2.9169 14.2699-.1044 3.7051-1.1989 7.3744-1.7323 11.0769-1.3589 9.433-2.7415 18.8645-3.9013 28.3228-.2706 2.2068-.9322 3.9451-2.6099 5.293-5.1877 4.168-10.3967 8.3094-15.5975 12.4611-.1153-.4026-.1278-.8856-.3669-1.1916-.5334-.6826-1.1867-1.7814-1.7784-1.7733-.6668.0092-1.7455.959-1.8902 1.6563-.3055 1.4717-.1191 3.0455-.1345 4.5774-1.285.8165-2.5685 1.6356-3.8554 2.4491-3.6416 2.302-7.2846 4.6016-10.9269 6.9022zm21.192-76.2734c.1086-2.2702-1.7577-4.358-3.3405-4.1756-.5703.0657-1.389.9083-1.4955 1.5036-.2931 1.6372 1.4453 4.1155 2.8004 3.9581.8409-.0977 1.59-.9855 2.0356-1.2861zm-38.5211-40.1293c-1.4329-1.1287-2.2216-2.2221-3.0867-2.2864-.7303-.0542-1.5494 1.0852-2.3291 1.6964.7646.8513 1.3941 2.0265 2.3478 2.4241.5148.2147 1.584-.9005 3.068-1.8341zm49.0156 68.7739c1.1486-1.3725 2.2693-2.124 2.2947-2.9107.0242-.7544-1.088-1.5453-1.7008-2.3202-.7571.639-1.9809 1.1812-2.1394 1.9445-.157.7561.7603 1.7352 1.5455 3.2864zm-32.71-33.0765c1.4483 1.6043 2.8787 2.3985 4.6015 1.1036.3492-.2624.4339-1.6258.1332-1.879-1.6468-1.3866-3.1223-.5578-4.7347.7754zm45.4275-13.2868c-.7244 1.2408-1.4693 1.9475-1.362 2.4836.122.6093.9386 1.3126 1.5857 1.489.3423.0933 1.4183-.9059 1.3648-1.3049-.0992-.74-.784-1.4013-1.5885-2.6677zm-50.309-3.9104c-.9715-.8167-1.5877-1.4388-2.3197-1.8598-.1418-.0815-1.1049.8646-1.0639.9272.4628.7066.9882 1.4088 1.6444 1.9245.1509.1186.8629-.4767 1.7392-.9919z" fill="#e5ae5c"/><path d="m341.8463 30.7329c-6.1594 1.9741-12.3124 3.9679-18.4794 5.918-12.8518 4.0641-25.6671 8.2519-38.5819 12.1059-9.2239 2.7526-18.5792 5.0673-27.8872 7.5349-8.1554 2.162-16.3338 4.2377-24.4888 6.4012-8.9834 2.3832-18.0334 4.5582-26.9081 7.2979-14.67 4.5286-29.3049 9.2015-43.7982 14.2614-11.2855 3.9399-22.4027 8.3913-33.4686 12.9234-13.0504 5.3449-25.4694 11.9569-37.1895 19.8259-13.7426 9.227-25.3054 20.7104-35.0761 34.0446-.7062.9638-1.7954 1.6471-2.7065 2.4606-.8656-.4389-1.7024-1.0032-2.6203-1.2124-.1878-.0428-.6791 1.2457-1.0305 1.9205l2.6592 1.2198c-3.0604 4.606-6.2791 9.1159-9.1448 13.84-4.5008 7.4197-9.0278 14.8456-13.0466 22.5288-3.4585 6.612-6.3224 13.5452-9.2324 20.428-.8727 2.064-1.0174 4.4358-1.4956 6.6673-.4445-3.4396-1.0209-6.869-1.3065-10.3224-.6015-7.2735.9373-14.1228 3.331-21.0527 6.9159-20.0212 16.0521-38.7925 28.4064-56.0662 10.4648-14.6318 23.7595-25.5246 39.9229-33.2965 17.5332-8.4305 35.7719-15.0426 53.9677-21.7838 31.8491-11.7995 64.1828-22.0788 97.0777-30.5609 23.9304-6.1705 47.9327-12.089 72.5121-15.0289 7.8497-.9389 15.8532-.6337 23.7885-.7808 1.5935-.0295 3.1968.4705 4.7955.7264zm-252.4474 72.4408c-.8296 1.0759-1.6809 1.7077-1.7272 2.3939-.0351.5207 1.073 1.6403 1.4626 1.5533.6963-.1554 1.5397-.9335 1.7332-1.6177.1329-.4698-.729-1.2209-1.4686-2.3295z" fill="#f1d492"/><path d="m63.9183 425.1122c2.9884.1944 5.9778.3733 8.9649.5859 12.6174.898 25.1742.3296 37.7012-1.3816 14.201-1.9399 28.2275-4.5837 41.9179-8.97 14.051-4.5019 26.8934-11.1027 38.5176-20.2446 7.6532-6.0188 14.5156-12.6259 19.6535-20.9681 4.8319-7.8452 5.8598-16.1158 3.7854-25.0326-1.6723-7.1888-4.8003-13.6365-8.7757-19.7599-.6362-.9799-1.0887-2.079-1.6254-3.1227 15.4859 4.8818 28.94 13.0063 39.7519 25.2141 9.0223 10.1872 9.5197 21.4775 3.8023 33.3755-6.0775 12.6472-15.9185 21.6403-27.9524 28.4473-17.4113 9.8488-36.3492 15.2284-55.8492 18.8704-23.7225 4.4308-47.607 6.2733-71.6786 3.6016-10.3206-1.1454-20.3678-3.554-29.7761-8.1437-1.1332-.5528-2.1573-1.3291-3.2313-2.0027.0648-.2487.129-.4965.1932-.7443 1.5336.0918 3.0672.1836 4.6008.2754z" fill="#fddc09"/><path d="m19.3127 219.6522c4.3333 1.483 8.8235 2.6218 12.9708 4.5128 13.0345 5.9432 25.814 12.4581 38.9397 18.1845 8.7927 3.8361 17.932 6.9325 27.0544 9.9411 7.2505 2.3912 14.6647 4.3448 22.1055 6.0625 2.1502.4963 4.7509-.1579 6.9619-.8607 11.2954-3.5907 22.5326-7.3645 33.7864-11.0861 4.6008-1.5215 9.1919-3.0725 13.7881-4.6092.0117 9.065.0228 18.1292.0342 27.1933-.5115-.0031-1.0452-.1039-1.532.0051-8.7801 1.9644-17.5311 4.0664-26.3378 5.9018-6.6543 1.3868-13.3409 2.7393-20.0789 3.5797-14.4902 1.8073-29.0252 3.2538-43.5351 4.9071-1.7877.2037-3.5342.7686-5.2998 1.1661-.3406-.0854-.6812-.1709-1.0214-.2557-.1927-.1197-.3858-.2398-.5789-.36-6.1811-1.7148-11.1062-5.5898-15.8905-9.5632-9.2002-7.6411-17.9422-15.7821-25.4691-25.1285-5.8432-7.2557-11.5304-14.6277-14.4714-23.6529-.6289-1.9293-.9587-3.9559-1.4261-5.9377zm57.6813 44.1428c-1.1592 1.1694-2.3035 1.8091-2.3249 2.4843-.0232.7327.9989 1.4985 1.5653 2.2498.7154-.5497 1.8506-.9916 2.0275-1.6798.1749-.6802-.6183-1.6093-1.2679-3.0543z" fill="#db8f35"/><path d="m346.0984 358.5365c1.8689 4.4682 4.18 8.8118 5.4831 13.4393 1.3221 4.6951-.9297 9.0724-3.1627 13.1375-3.6941 6.7252-9.0534 12.017-15.2048 16.4695-15.2922 11.0688-32.2904 17.7713-51.157 19.4658-5.4214.4869-10.862.7607-16.2933 1.1321-.5253-7.2615-.6375-14.2011-1.6033-21.0199-1.9041-13.443-3.8501-26.9092-6.6289-40.1879-1.6023-7.6569-6.7839-13.7369-12.4154-19.114-8.3645-7.9867-17.9487-14.2109-28.4263-19.0783.7329-.0923 1.5415-.4322 2.1883-.2368 4.5307 1.3683 9.2564 2.3705 13.4852 4.3966 7.2708 3.4836 13.4013 8.7203 19.274 14.2275 6.334 5.9398 13.2623 11.337 18.9967 17.8002 6.1901 6.9767 11.3725 14.8602 16.8172 22.475 1.1163 1.5612 1.9481 2.1184 3.9029 1.7568 11.192-2.0701 22.205-4.7142 32.3878-9.9739 7.9543-4.1085 15.8107-8.415 22.3565-14.6895z" fill="#fddc09"/><path d="m346.0984 358.5365c-6.5458 6.2745-14.4022 10.581-22.3564 14.6895-10.1828 5.2597-21.1958 7.9037-32.3878 9.9739-1.9548.3615-2.7867-.1957-3.9029-1.7568-5.4446-7.6147-10.6271-15.4983-16.8172-22.475-5.7344-6.4631-12.6628-11.8604-18.9967-17.8002-5.8727-5.5072-12.0032-10.7439-19.274-14.2275-4.2288-2.0261-8.9545-3.0283-13.4852-4.3966-.6469-.1954-1.4554.1445-2.1883.2368-2.3224-.9121-4.6457-1.8243-6.9689-2.7366.0345-.1936.0689-.3873.1033-.581 3.4449-.1251 6.8922-.4046 10.3344-.3511 31.3102.487 61.9674 4.8444 91.4083 15.9643 10.1767 3.8438 19.8515 8.7221 28.6201 15.2879 2.8743 2.1525 4.5619 5.0003 5.9113 8.1724z" fill="#fdeb5d"/><path d="m298.2164 169.8869c-12.6068 4.5029-25.3893 8.575-37.7713 13.6287-12.6124 5.1477-24.1265 12.4178-34.0847 21.8147-9.5207 8.984-17.0593 19.4572-22.2694 31.5449-4.7522 11.0252-8.3743 22.3474-8.5834 34.4622-.1054 6.1063.3141 12.223.5393 18.3334.3158 8.5696.6716 17.1378 1.0103 25.7066-2.0873.9651-3.257.5286-3.79-1.9362-.409-1.8916-1.3116-3.7082-2.1878-5.4617-4.9045-9.8146-8.0761-20.0584-8.7138-31.1082-.7447-12.9051-1.0984-25.7677.2643-38.6653 2.0912-19.7937 11.3611-35.5074 26.4085-48.1889 16.5811-13.9742 35.9459-22.2735 56.5752-27.9574 6.4108-1.7663 13.0056-2.8647 19.5159-4.2685 1.5411 1.7515 2.9351 3.6664 4.6576 5.2162 2.6928 2.4231 5.6082 4.599 8.4293 6.8795z" fill="#fdf39b"/><path d="m239.6557 437.2033c-13.3632 9.453-27.9201 16.5119-43.4099 21.7238-15.8744 5.3413-32.1915 8.5204-48.8555 9.8802-15.0442 1.2277-30.0895.6686-45.0553-1.0695-9.568-1.1112-19.0526-2.9136-28.1374-6.3291-.3557-2.1184-.7113-4.2366-1.067-6.3548 2.2462-.0056 4.4923-.0111 6.7385-.0167 1.2669 1.6961 2.374 1.1813 3.4149-.2469 2.6772-.2122 5.3544-.4243 8.0316-.6365 1.123 1.8536 2.4557 1.4022 3.8432.3497 2.1124-.2258 4.2314-.4027 6.3363-.685 20.4337-2.7399 40.7092-6.2769 60.4772-12.2804 2.2064-.6701 4.288-1.7508 6.4275-2.6411 9.147-2.4362 18.3933-4.5551 27.4191-7.3787 15.8646-4.9628 30.7342-11.9547 43.2674-23.21.2703.7771.7039 1.5387.7791 2.3343.1723 1.8236.1698 3.6637.2382 5.4971.0022.6081.0043 1.2163.0065 1.8244-.2453 5.0698-.5228 10.1383-.714 15.2101-.0502 1.3379.1659 2.6858.2596 4.0291zm-10.3426-8.5474c1.4675-1.7904 2.4035-2.9325 3.3396-4.0746-.7747-.6284-1.8148-1.9344-2.273-1.7549-1.2492.4893-2.416 1.4821-3.2364 2.5632-.2.2637 1.0563 1.6326 2.1698 3.2663zm-81.3236 27.661c-.3579-.0242-.7158-.0484-1.0737-.0725-.6829 1.0879-1.6416 2.1102-1.9236 3.2937-.1264.5306 1.1026 1.3841 1.7165 2.091.9307-.9474 2.1099-1.7715 2.6711-2.9023.2284-.4601-.8865-1.5866-1.3903-2.4099zm54.6987-12.4214c-1.5399-1.2719-2.5951-2.6248-3.0791-2.4445-1.0517.3918-2.1064 1.4417-2.5464 2.4821-.1767.4178 1.2804 2.174 1.9557 2.152 1.0034-.0328 1.9728-1.1041 3.6698-2.1896zm12.9804-6.9349c-1.043 1.2356-1.9781 1.9386-2.2466 2.8401-.1257.4222 1.259 1.8519 1.5704 1.7403.8724-.3127 1.8366-1.068 2.1785-1.8919.1956-.4713-.7511-1.4167-1.5023-2.6885z" fill="#da8f35"/><path d="m482.088 199.0601c1.6667 1.4612 3.3558 2.8981 4.9864 4.3986.4883.4493 1.04 1.0248 1.1775 1.6301 1.3959 6.1433 2.9932 12.2612 3.9545 18.4759.6727 4.349.7003 8.8449.5676 13.2617-.2772 9.226-.3441 18.5022-1.4126 27.651-1.9898 17.0367-8.7481 31.9472-21.2262 44.1109-8.2241 8.017-17.8653 13.9965-27.5729 19.8544-19.045 11.4923-38.6996 21.8128-59.2777 30.3687-6.4355 2.6757-12.4489 6.3662-18.66 9.5835-.3641.1887-.7687.2994-1.3262.5118-.3656-.8414-.692-1.5925-.799-1.8387 4.6677-3.6238 9.1071-7.0205 13.4895-10.4889 3.3498-2.6511 6.82-5.1924 9.8945-8.1395 5.2224-5.006 10.1753-10.2931 15.2426-15.4619 5.6719-3.0448 11.3603-6.0576 17.0014-9.1564 1.4655-.805 2.783-1.8792 4.1685-2.8296 1.9687 1.576 2.7707 1.2499 4.2077-1.7109 2.2938-1.2965 4.5957-2.5789 6.8799-3.8921 7.5884-4.3625 15.1989-8.6879 22.7399-13.131 2.7267-1.6066 4.2112-4.1423 4.4091-7.3571 1.5237-1.1793 2.3222-2.5661 1.2814-4.4791.1894-.2731.4924-.5237.5517-.8226 2.1576-10.8852 4.2926-21.7748 6.4307-32.6639.8783-.3608 1.7567-.7216 2.635-1.0824-.6062-1.0616-1.2123-2.1231-1.8185-3.1846.9058-5.6942 1.6746-11.4145 2.7528-17.0759 1.283-6.7364 2.5945-13.4846 4.3383-20.1106 1.4636-5.561 3.5651-10.9541 5.3841-16.4214zm-71.3833 139.7604c-.2288-.2202-.4576-.4404-.6863-.6606-1.9337 1.6879-3.9083 3.3329-5.7652 5.1014-.3514.3347-.2358 1.1598-.3357 1.7586.5423.0412 1.1362.2474 1.6186.0968 3.1587-.9861 3.7949-3.928 5.1686-6.2962zm27.5134-19.4991c.8473-1.3144 1.5911-2.016 1.7039-2.8075.0714-.5014-.7972-1.1368-1.2442-1.7122-.7298.5949-1.7523 1.0662-2.0758 1.8326-.1841.4365.7736 1.3549 1.6161 2.6871z" fill="#cf7419"/><path d="m482.088 199.0601c-1.819 5.4674-3.9205 10.8604-5.3839 16.4214-1.7437 6.6261-3.0552 13.3743-4.3383 20.1106-1.0782 5.6614-1.847 11.3817-2.753 17.0764-.712.4265-2.0541.9195-2.0173 1.2659.1097 1.0311.7612 2.0046 1.201 3.0007-2.1381 10.889-4.273 21.7787-6.4307 32.6639-.0593.2989-.3623.5495-.5516.8217-2.3412 1.1932-2.8147 2.8484-1.2816 4.48-.1979 3.2148-1.6825 5.7505-4.4091 7.3571-7.541 4.4431-15.1515 8.7684-22.7399 13.131-2.2842 1.3132-4.5861 2.5956-6.8805 3.892-.4613-.7083-.889-1.9641-1.3909-1.9945-.7228-.0438-1.6961.6542-2.1956 1.3136-.4592.6062-.4331 1.58-.6208 2.3919-1.3855.9505-2.7031 2.0246-4.1685 2.8296-5.6411 3.0988-11.3295 6.1116-17.0014 9.1564 6.5065-11.9666 10.2432-24.7683 11.5446-38.3039 3.6424-2.3003 7.2854-4.5999 10.9268-6.9018 1.2869-.8135 2.5704-1.6326 3.8538-2.449 2.8783 1.1482 3.6363.5544 4.1716-3.269 5.2007-4.1517 10.4098-8.293 15.5975-12.4611 1.6777-1.3479 2.3393-3.0862 2.6099-5.293 1.1598-9.4583 2.5424-18.8898 3.9013-28.3228.5334-3.7025 1.6279-7.3718 1.7323-11.0769.1401-4.9726 1.9729-9.521 2.9169-14.2699 1.5539-7.8165 3.9656-15.4624 6.016-23.1805 5.8976 3.8699 11.7945 7.74 17.6914 11.6102zm-9.9435 25.3202c2.2265-1.8714 2.66-3.6734.9422-5.0203-.5834-.4574-2.1992-.4318-2.7359.0499-1.3191 1.1837-.4098 3.4213 1.7937 4.9704zm-24.5083 75.5895c1.0384 1.3873 1.7433 2.3292 2.4483 3.271.7374-.9229 1.9104-1.7769 2.0709-2.7912.123-.7773-1.0321-1.7569-1.6188-2.6465-.8368.6253-1.6738 1.2504-2.9004 2.1667zm16.4353-57.2892c1.2126-1.5168 2.0619-2.4688 2.728-3.5352.0962-.154-.9465-1.2887-1.0248-1.2416-1.0618.638-2.131 1.3236-2.9774 2.2087-.1673.1748.5959 1.2395 1.2742 2.5681zm-37.6909 59.7226c.7677-.9917 1.5007-1.5169 1.4978-2.0379-.0039-.7056-.5724-1.4079-.8986-2.1117-.5707.6027-1.3596 1.123-1.6302 1.8391-.1621.4289.4862 1.1641 1.031 2.3105z" fill="#da8f35"/><path d="m378.6568 93.0933c2.5803-5.0453 5.2401-10.0523 7.7036-15.1541 1.0551-2.1849 1.7017-4.567 2.5338-6.8595l-.0099.0031c1.6514-3.7838 3.3227-7.5591 4.9388-11.3578.3633-.8539.5333-1.7901.7927-2.6883 9.1429 7.7621 15.651 17.4595 20.7238 28.2107-5.176 7.0584-8.2926 15.0432-10.513 23.4254-3.4736 13.1135-7.6154 25.9803-13.8993 38.0682-1.4068 2.7061-2.7538 5.4433-4.1284 8.1662-7.9861-1.1881-15.9722-2.377-23.9585-3.564-4.7941-.7126-9.5878-1.4277-14.3832-2.1309-2.8598-.4194-5.7226-.8178-8.584-1.2259 1.8495-2.2989 3.5844-4.7019 5.5672-6.879 11.8718-13.0359 22.2028-27.1791 30.7797-42.5883.4258-.765.4191-1.7707.6138-2.663.6078-.9203 1.2154-1.8416 1.8229-2.7628zm10.206 38.4372c-1.4715-1.6232-2.4579-2.7113-3.4444-3.7994-.6839.7194-1.8253 1.3649-1.9558 2.1735-.2658 1.6478.2609 3.4349 2.2163 3.6866.7581.0976 1.6747-1.0365 3.1839-2.0607zm11.7747-21.1829c1.1324-1.108 1.8205-1.7814 2.5087-2.4548-.9803-.9362-1.8776-2.0122-3.0133-2.6869-.2186-.1299-2.0672 1.4751-1.9462 1.9983.2326 1.006 1.3364 1.8105 2.4508 3.1434zm-30.4088 18.8434c-1.0961 1.2906-2.4014 2.298-2.2324 2.7349.395 1.0212 1.3724 2.0614 2.3727 2.4901.4316.185 2.2299-1.2708 2.1384-1.7258-.2121-1.054-1.1976-1.9523-2.2787-3.4992zm29.3391-48.186c-.7727 1.0039-1.6386 1.7672-1.5071 2.0284.3463.6879 1.0611 1.2906 1.7708 1.6371.2271.1109 1.3504-.8246 1.2837-1.0431-.2368-.7751-.8104-1.4472-1.5474-2.6224z" fill="#da8f35"/><path d="m250.8334 437.9344c3.1121-2.512 6.2242-5.0239 9.3364-7.5362-1.3035 2.5189-2.6071 5.0379-4.0902 7.904 3.7788-.4203 7.2982-.7394 10.7878-1.2585.7315-.1088 1.3535-.9538 2.026-1.4596.0219 1.5211.1865 2.9347 2.2367 2.8719 1.3834-.0424 2.0143-.6711 1.5991-2.0933 1.8533-.2158 3.7376-.287 5.5537-.6763 4.3923-.9416 8.7527-2.0316 13.126-3.0617 1.0098-.138 2.0195-.2761 3.0293-.4142 8.3958-.8615 16.38-3.2292 24.0941-6.585.4544.7287.9088 1.4574 1.3633 2.1861.5817-.4721 1.1634-.9442 1.7451-1.4162-.6237-.6035-1.2474-1.2069-1.8711-1.8103 1.1213-.3528 2.3511-.5172 3.3457-1.0899 5.1537-2.9675 10.2838-5.9803 15.3463-9.1003 2.4322-1.4989 4.6974-3.2686 7.0382-4.9157 1.0258 1.8871 2.5535 2.6572 4.2881 1.1718 1.7121-1.4661 1.1438-3.114-.4201-4.4793 2.5207-2.4193 5.0414-4.8386 7.5621-7.2579-3.452 15.5732-10.9701 28.3468-24.8971 36.9139-13.413 8.2509-28.0223 13.3634-43.1946 17.1267-14.6443 3.6323-29.4842 5.7096-44.5888 5.7474-2.5605.0064-5.1211-.0153-7.6812-.0246.9447-1.1829 1.889-2.3652 2.8333-3.5475 1.6112.2631 2.9555-.0433 3.6597-1.7152.3078-.4948.5552-1.0423.933-1.4763 3.2298-3.7098 6.496-7.388 9.7166-11.1057.5202-.6005.8691-1.3494 1.4648-2.296-1.7014-.2359-3.0218-.419-4.3422-.6021zm56.6427-7.0704c-.9704 1.1456-2.0337 1.8881-1.9337 2.4063.1408.73 1.0663 1.6434 1.8047 1.8064.4964.1096 1.7603-.9394 1.7642-1.4767.0054-.7498-.8448-1.5058-1.6352-2.736zm23.2667-3.9123c.8176-1.0146 1.7854-1.7357 1.6725-2.1861-.1773-.7079-.9979-1.4561-1.7199-1.7312-.308-.1173-1.5233.946-1.492 1.4174.0483.726.8148 1.4042 1.5394 2.4999zm-48.648 22.0299c.7652-1.022 1.5822-1.6349 1.5674-2.2268-.0151-.6003-.8519-1.1799-1.3287-1.7686-.6133.569-1.5237 1.0479-1.7335 1.7393-.1351.4455.7579 1.2031 1.4948 2.2561z" fill="#da8f35"/><path d="m78.1699 284.55c1.7656-.3975 3.5121-.9624 5.2998-1.1661 14.5099-1.6534 29.0449-3.0998 43.5351-4.9071 6.738-.8404 13.4246-2.1929 20.0789-3.5797 8.8067-1.8354 17.5577-3.9374 26.3378-5.9018.4868-.1089 1.0206-.0082 1.532-.0051 1.0155 10.0737 1.4299 20.2496 5.3735 30.2387-2.5253.3506-4.8164.7692-7.1265.972-10.2165.897-20.4725 1.3961-30.6482-.0589-10.1119-1.4458-20.2688-2.9292-30.1808-5.3269-11.2418-2.7194-22.234-6.4707-33.3313-9.7849-.3101-.0926-.581-.3171-.8703-.4802z" fill="#cf7418"/><path d="m386.799 154.9071c1.3746-2.7229 2.7216-5.4601 4.1284-8.1662 6.2839-12.0879 10.4256-24.9547 13.8993-38.0682 2.2204-8.3822 5.337-16.367 10.513-23.4254 7.335 13.7689 10.2028 28.3497 7.6464 43.8115-1.4127 8.5446-4.5331 16.5771-8.1125 24.4308-.2478.5437-.4807 1.0946-.709 1.6469-1.8837 4.5564-1.8948 4.6221-6.5533 3.7655-6.9475-1.2775-13.8759-2.6581-20.8123-3.9949zm26.7386-49.8662c-.6592 1.2965-1.3486 2.021-1.2438 2.6023.1378.7641.9008 1.4155 1.395 2.1153.509-.6586 1.39-1.2992 1.4232-1.981.0336-.6911-.7704-1.4231-1.5744-2.7366z" fill="#cf7418"/><path d="m63.9183 425.1122c-1.5336-.0918-3.0671-.1836-4.6014-.2762-.5954-.0402-1.1902-.0795-1.785-.1189-16.7449-9.2694-23.8935-26.3875-19.0364-41.1942 3.5481-10.8165 10.7198-19.2154 19.5576-26.1457 17.0235-13.3492 36.4171-21.8759 57.1525-27.574.4746-.1304.9974-.085 1.4977-.1231-1.9824.8915-3.9404 1.844-5.9511 2.6677-11.0835 4.5399-21.6163 10.0229-31.3264 17.1298-9.8217 7.1886-18.2769 15.5092-24.3499 26.1644-6.426 11.2746-6.0478 22.6631-.4649 33.9508 2.6656 5.3892 6.1783 10.3593 9.3073 15.5194z" fill="#fcf29a"/><path d="m268.8933 435.5842c-.6725.5058-1.2945 1.3508-2.026 1.4596-3.4896.5191-7.009.8382-10.7878 1.2585 1.4831-2.8661 2.7867-5.3851 4.0902-7.904.0375-.0766.0766-.1528.1124-.2304 2.6331-5.71 7.751-4.6988 12.4778-4.5207 21.3338.8039 40.6129-5.5565 58.4522-16.802 6.5348-4.1194 12.4742-9.0104 17.2498-15.1711 4.6945-6.0562 8.1876-12.6121 8.5186-20.5348 1.9861 5.6219 2.2953 11.4084 1.5254 17.2643-.3755 2.8564-1.0411 5.6747-1.5758 8.5102-2.5211 2.4194-5.0418 4.8387-7.5626 7.2578-2.4929-.3047-3.758.8262-3.8679 3.3078-2.3408 1.6471-4.606 3.4168-7.0382 4.9157-5.0625 3.12-10.1926 6.1328-15.3463 9.1003-.9946.5727-2.2244.7371-3.346 1.0903-.4125.347-.8248.6935-1.237 1.0401-7.7141 3.3558-15.6983 5.7235-24.0936 6.5849-.1435-1.1222-.0773-2.349-.554-3.3053-.1516-.3043-2.0168-.2238-2.6249.2667-1.2485 1.0071-1.0425 2.3441.1491 3.4528-4.3733 1.0301-8.7337 2.1201-13.126 3.0617-1.8161.3893-3.7004.4605-5.554.6761-.9884-1.6902-2.1439-2.555-3.8354-.7785z" fill="#e4ad5c"/><path d="m168.3999 438.897c-2.1395.8903-4.2211 1.971-6.4275 2.6411-19.768 6.0035-40.0435 9.5405-60.4772 12.2804-2.1049.2823-4.2239.4592-6.3355.6849.3126-1.4822.123-2.88-1.6553-2.9808-1.5868-.0899-2.4094.9593-2.1887 2.6312-2.6772.2122-5.3544.4243-8.0304.636-.682-.6652-1.3652-1.3298-2.0484-1.9944-.4559.7473-.9118 1.4947-1.3677 2.2419-2.2462.0056-4.4924.0112-6.7388.0167-.1754-.0147-.3506-.0294-.5258-.0441-.1327-.9077-.1302-1.8613-.4204-2.7155-1.6576-4.8795-3.3849-9.7354-5.0886-14.5992 4.9435 1.2636 9.8468 2.7217 14.8386 3.7511 10.9036 2.2485 21.9736 2.8399 33.0826 2.8062 17.9671-.0546 35.7222-2.2399 53.3831-5.3555z" fill="#e4ad5c"/><path d="m240.1037 416.1396c-.0685-1.8334-.0659-3.6735-.2382-5.4971-.0752-.7955-.5087-1.5572-.7791-2.3343 4.2288-5.2109 8.5739-10.3332 12.6274-15.6766 1.5979-2.1064 2.5452-4.7064 4.369-7.0286.6902 7.311 1.4785 14.6147 2.0326 21.9359.3142 4.1514.2997 8.3318.3043 12.4992.001.9164-.2581 2.1786-.8826 2.6966-5.9008 4.8952-11.9067 9.6636-17.8819 14.4685-.0934-1.3433-.3095-2.6913-.2591-4.0292.1912-5.0718.4687-10.1404.7117-15.2086.9091-.1444 1.8205-.2904 2.7319-.4363-.1139-.5371-.1683-1.5105-.3521-1.5356-.7735-.1054-1.5858.0722-2.3839.1461z" fill="#cf7419"/><path d="m67.0956 437.695c1.7036 4.8639 3.4309 9.7197 5.0886 14.5992.2902.8542.2877 1.8078.4203 2.7155-5.3643-.4872-10.7285-.9743-16.0927-1.4615-3.2742-1.4089-5.5754-3.5886-6.8398-7.1012-2.9185-8.1077-6.1304-16.1096-9.187-24.1683-.292-.7698-.3284-1.6366-.4835-2.4584l.0221-.0197c1.4261 1.3167 2.8413 2.6455 4.2803 3.948 5.6226 5.0891 11.8829 9.182 18.8944 12.1102 1.3239.5529 2.5995 1.2212 3.8973 1.8362z" fill="#f1d492"/><path d="m298.2164 169.8869c-2.8211-2.2805-5.7365-4.4564-8.4295-6.8794-1.7225-1.5498-3.1165-3.4647-4.6576-5.2162 9.1401-.9706 18.2665-2.1324 27.4291-2.7811 2.388-.169 4.9359 1.1309 7.3266 1.9893 3.033 1.0891 5.9806 2.4161 8.9656 3.6405-4.062 1.2489-8.1199 2.5132-12.1884 3.7426-5.2234 1.5784-10.4588 3.117-15.6787 4.7065-.6316.1923-1.1993.5942-1.7972.8992-.3236-.0336-.6467-.0675-.9699-.1014z" fill="#fce929"/><path d="m239.4013 455.1297c-.9443 1.1823-1.8886 2.3647-2.8333 3.5475-2.8772-.0498-5.7566-.0409-8.63-.1668-2.9558-.1296-5.9059-.3909-8.9523-.8795 11.2213-5.6771 21.8779-12.1359 31.8482-19.6964 1.3199.1831 2.6403.3661 4.3415.602-.5957.9466-.9446 1.6955-1.4648 2.296-3.2206 3.7178-6.4868 7.3959-9.7166 11.1057-.3778.434-.6251.9814-.9325 1.4764-.3544-.3542-.6726-.9575-1.071-1.0161-1.1958-.1759-2.4229-.1393-3.6378-.1856.3496.9722.6991 1.9445 1.0486 2.9168z" fill="#cf7419"/><path d="m56.5118 453.5482c5.3642.4871 10.7285.9743 16.0927 1.4615.1753.0147.3505.0294.5259.0441.3559 2.1183.7115 4.2365 1.0672 6.3549-5.8952-2.62-11.7905-5.2402-17.6858-7.8605z" fill="#e6af5c"/><path d="m120.9475 328.4818c-1.4236.4236-2.8473.8471-4.2713 1.2701 1.4235-.4237 2.8474-.8469 4.2713-1.2701z" fill="#fcf29a"/><path d="m174.9135 241.7362c.2643-2.0416.5285-4.0832.7926-6.1244-.2644 2.0418-.5285 4.0831-.7926 6.1244z" fill="#db8f35"/><path d="m123.6796 327.6739c-.9277.288-1.8554.576-2.7834.8638.9276-.288 1.8555-.5759 2.7834-.8638z" fill="#fcf29a"/><path d="m57.5319 424.717c.5948.0393 1.1896.0787 1.785.1189-.0636.2486-.1278.4965-.1926.7451-.5312-.2874-1.0618-.5757-1.5924-.864z" fill="#feec5d"/><path d="m76.5696 283.9344c.1931.1201.3862.2403.5789.36-.1932-.1204-.3861-.2402-.5789-.36z" fill="#cf7418"/><path d="m40.0015 419.8204c-.1049-.0791-.2099-.1582-.3148-.2373.1122.0726.2245.1453.3368.2178.0001-.0002-.022.0195-.022.0195z" fill="#f1d492"/><g fill="#834504"><path d="m378.6568 93.0933c-.6075.9213-1.2151 1.8426-1.8228 2.7627-2.3064-.5845-3.5156-2.2642-4.0847-4.3918-.4714-1.7624.7016-2.8463 2.2262-1.9363 1.4278.8522 2.4696 2.351 3.6813 3.5654z"/><path d="m287.0728 138.356c-1.2563-1.9292-2.6249-3.1139-2.5431-4.1883.0684-.8986 1.7616-2.2232 2.863-2.3646 1.658-.2128 3.0173 1.175 2.6683 2.8853-.2241 1.0982-1.5456 1.9725-2.9882 3.6676z"/><path d="m297.7723 57.0736c-1.6382-1.4295-3.4423-2.7186-4.8303-4.3597-.5323-.6293-.1147-2.062-.13-3.1285 1.03.2906 2.6954.2985 2.9736.9237.9233 2.075 1.3474 4.3722 1.963 6.5841z"/><path d="m109.3993 228.758c-.4542.3605-1.4071 1.7357-2.2934 1.6942-1.9724-.0926-2.414-1.8635-2.2943-3.6003.0916-1.3282.1598-3.1369 2.0148-2.8567 1.8653.2818 2.6928 1.8908 2.5729 4.7628z"/><path d="m221.035 140.2827c-1.5985 1.322-2.5593 2.7761-3.5462 2.794-1.9879.036-2.6176-1.9639-2.3437-3.4916.1698-.9468 1.7517-2.3636 2.5746-2.2835.9853.0959 1.8371 1.5625 3.3153 2.9811z"/><path d="m322.8444 89.8359c1.4741.5318 3.0464.8892 4.3919 1.6487 1.1425.6448 2.0471 2.0305.7298 3.0903-.6822.5488-2.612.5459-3.2146-.0203-1.1374-1.0689-1.7229-2.7251-2.5379-4.1372.2104-.1938.4206-.3876.6308-.5815z"/><path d="m152.8415 149.7428c-1.3368-1.142-3.0126-1.9017-3.0615-2.7546-.1029-1.7958 1.6884-2.332 3.1328-1.929 1.0817.3019 1.9378 1.4126 2.8943 2.1632-.867.7368-1.7339 1.4736-2.9656 2.5204z"/><path d="m217.1535 120.2058c.9756 1.7821 1.9704 2.8432 1.9868 3.9192.0094.6217-1.9183 1.976-2.3455 1.7596-.9888-.5009-1.9799-1.6749-2.2061-2.7386-.1272-.5974 1.2658-1.5183 2.5648-2.9402z"/><path d="m193.9553 80.6529c-1.1391-1.7468-2.1328-2.7594-2.4088-3.9397-.1142-.4885 1.2589-1.8401 2.043-1.918 1.7286-.1717 2.6492 1.2228 2.5304 2.7829-.0628.8242-1.0634 1.577-2.1646 3.0748z"/><path d="m165.0587 102.7003c.9531 1.3537 2.122 2.6876 1.9729 2.8562-.8533.965-1.9366 1.9651-3.121 2.2809-.4702.1253-1.4005-1.4757-2.1214-2.2907.9361-.815 1.8723-1.63 3.2695-2.8464z"/><path d="m349.0356 124.3788c-1.1806.7996-1.7574 1.5055-2.3762 1.5444-1.3406.0844-3.2128-2.4623-2.8401-3.9628.1703-.6857 1.0939-1.1843 1.6758-1.7677 1.0714 1.2668 2.1429 2.5336 3.5405 4.1861z"/><path d="m90.6502 179.3861c-1.7503 1.0213-2.9556 2.2299-3.6105 1.9824-.8754-.3308-1.7784-1.7818-1.7989-2.7698-.0141-.6785 1.5192-2.0045 2.24-1.9264.895.0969 1.6654 1.3443 3.1694 2.7138z"/><path d="m228.5248 107.3206c1.4953-.8757 2.8734-1.9417 3.0718-1.755.9614.9053 1.6062 2.1469 2.3632 3.2693-.8815.5853-2.0454 1.8388-2.5835 1.6114-1.0033-.4239-1.6427-1.7091-2.8515-3.1257z"/><path d="m342.4966 60.7639c1.1366 1.6823 1.9053 2.82 2.6739 3.9576-.8229.5196-1.7088 1.546-2.4556 1.4532-1.547-.1922-3.0052-1.1496-2.6046-3.0529.1481-.7032 1.1873-1.2188 2.3863-2.3579z"/><path d="m302.4065 134.0605c2.5912.7103 4.0016 2.3981 3.3032 4.0863-.2742.6628-1.5574 1.5999-1.8996 1.4318-2.384-1.1711-1.8872-3.2879-1.4036-5.5181z"/><path d="m257.8437 122.3813c-1.634.9488-2.6839 2.0409-3.4287 1.8622-.8291-.199-1.7746-1.5018-1.8999-2.4281-.0713-.5275 1.4269-1.8072 2.1598-1.7636.8693.0517 1.6756 1.1622 3.1688 2.3295z"/><path d="m199.4136 92.3535c-1.6252.9514-2.5592 1.932-3.4118 1.8657-.736-.0573-2.036-1.4534-1.9143-1.9933.1967-.8726 1.3104-2.0556 2.1208-2.1247.7833-.067 1.6727 1.1078 3.2053 2.2523z"/><path d="m152.0682 223.0666c1.2871-1.0281 2.0027-1.5997 2.7184-2.1713.7246 1.0258 1.648 1.9813 2.0504 3.1208.1181.3344-1.5373 1.8375-1.8704 1.6859-.9664-.44-1.6742-1.4479-2.8984-2.6354z"/><path d="m87.5625 190.2788c-1.599.8757-2.5434 1.8211-3.3001 1.6892-.7866-.1371-1.9132-1.3085-1.9231-2.0406-.0091-.6743 1.3038-1.9484 1.9687-1.9069.8917.0556 1.7202 1.1231 3.2545 2.2583z"/><path d="m231.4816 89.9587c-1.0005-1.3723-2.1959-2.3648-2.0189-2.9189.2737-.8564 1.4294-1.8329 2.3189-1.9519.6128-.082 2.0385 1.2691 1.9742 1.8563-.0969.8834-1.1793 1.6589-2.2742 3.0145z"/><path d="m301.8977 85.0216c-1.5126.7937-2.4969 1.736-3.1761 1.552-.7451-.2018-1.7369-1.5098-1.6471-2.211.0903-.7048 1.3889-1.748 2.1403-1.7334.7201.0141 1.4174 1.196 2.6829 2.3924z"/><path d="m322.5253 54.7521c-1.0473-1.0563-1.7476-1.7626-2.4479-2.469.9857-.4782 1.965-1.3024 2.9591-1.3205.7376-.0134 1.4943 1.0197 2.2425 1.5867-.8173.6537-1.6345 1.3075-2.7537 2.2028z"/><path d="m378.7266 58.3843c-1.5342.7914-2.4408 1.6401-2.9614 1.4472-1.044-.3869-1.877-1.3431-2.7971-2.0642.7619-.4868 1.5733-1.4266 2.2736-1.3501.9601.1049 1.8361.9809 3.4849 1.9671z"/><path d="m131.2956 191.992c-1.3286.9091-2.3326 1.9928-2.7512 1.8007-.8963-.4113-1.4901-1.482-2.2078-2.2826.6949-.5997 1.4379-1.7258 2.0727-1.6678.8218.0752 1.5571 1.0949 2.8863 2.1497z"/><path d="m153.9894 206.6883c-.8553-1.5311-1.7134-2.3729-1.5981-3.0486.1243-.7283 1.1601-1.3011 1.7982-1.9418.6293.6819 1.6869 1.3201 1.7622 2.0585.0692.6777-.9208 1.4633-1.9623 2.9319z"/><path d="m276.022 93.7129c-1.5035.8213-2.4016 1.7089-3.1736 1.6102-.6388-.0816-1.7253-1.5554-1.5527-2.0071.2995-.7838 1.3688-1.6147 2.2111-1.7306.5656-.0777 1.2962 1.0428 2.5152 2.1275z"/><path d="m84.4948 228.6127c-1.5193.7268-2.425 1.5382-3.0821 1.3712-.6987-.1775-1.7311-1.4374-1.5926-1.9449.201-.7364 1.3077-1.6579 2.0547-1.6823.6511-.0212 1.3391 1.0906 2.62 2.256z"/><path d="m124.2239 154.0946c.9032 1.2466 1.49 2.0565 2.0768 2.8663-.6997.4666-1.5082 1.4122-2.0726 1.2839-.7799-.1773-1.6776-1.0663-1.9285-1.8432-.1338-.4138.9875-1.233 1.9243-2.307z"/><path d="m189.7962 123.9738c.8271 1.3229 1.7186 2.1398 1.57 2.6591-.2045.7148-1.1517 1.581-1.8643 1.6639-.5109.0594-1.6493-1.0808-1.623-1.6447.0338-.7267.9512-1.4124 1.9173-2.6783z"/><path d="m184.395 160.641c-1.3724.7523-2.2006 1.5728-2.7569 1.4177-.6834-.1905-1.5365-1.1765-1.5692-1.8547-.0263-.5455 1.1269-1.6645 1.6351-1.5981.7646.1 1.423 1.0128 2.691 2.0351z"/><path d="m52.2703 155.4346c-.8864-.4066-1.7728-.8132-2.6592-1.2198.3514-.6748.8427-1.9633 1.0305-1.9205.9178.2093 1.7547.7736 2.6203 1.2124-.3305.6427-.661 1.2853-.9916 1.9279z"/><path d="m287.324 65.8056c-1.0013.696-1.8434 1.6196-2.2055 1.4592-.6553-.2902-1.2779-1.1839-1.402-1.9129-.0589-.3456 1.0787-1.2672 1.6447-1.2427.5677.0246 1.0988.9015 1.9628 1.6964z"/><path d="m358.5201 80.0177c-.9577.7467-1.5809 1.6059-2.1288 1.5603-.6102-.0508-1.1518-.9249-1.7233-1.4406.5739-.6054 1.0605-1.4956 1.7546-1.708.4073-.1246 1.1447.8296 2.0975 1.5883z"/><path d="m388.8943 71.0797c-.6125.192-1.3448.6839-1.8067.4992-.5613-.2243-1.2495-1.0338-1.2274-1.5627.0224-.5345.7654-1.2641 1.3476-1.47.3813-.1348 1.2138.3904 1.5198.8405.2794.411.1224 1.1188.1572 1.6959-.0004.0001.0095-.0029.0095-.0029z"/><path d="m198.1624 171.5222c.7145.9518 1.224 1.6305 1.7334 2.3091-.5479.3415-1.2234 1.0698-1.616.9403-.72-.2375-1.2731-.9809-1.8958-1.5134.4897-.478.9794-.956 1.7784-1.736z"/><path d="m255.6655 60.608c-1.078.7668-1.715 1.5715-2.328 1.5536-.5732-.0167-1.1208-.906-1.6797-1.4113.5361-.532 1.0292-1.4244 1.6202-1.4948.5911-.0703 1.2799.6814 2.3875 1.3525z"/><path d="m358.6261 46.0981c-1.0199.5074-1.6817 1.1166-2.2043 1.0143-.4791-.0938-1.1874-1.0284-1.1043-1.4594.0978-.507.9699-1.2379 1.4504-1.1981.5365.0444 1.0103.8452 1.8582 1.6432z"/><path d="m358.4303 54.83c.266.77.7029 1.5381.7118 2.3111.0034.2991-1.0329.9317-1.4702.8365-.6076-.1323-1.0972-.8067-1.6373-1.249.4089-.4351.8178-.8702 1.2267-1.3053.3897-.1978.7794-.3955 1.169-.5933z"/><path d="m297.7487 57.0932c.071.1327.1421.2653.2131.398-.0379-.0682-.0801-.1343-.1123-.205-.0311-.0683-.0519-.1412-.0772-.2123 0-.0003-.0236.0193-.0236.0193z"/><path d="m431.6229 282.054c-.5353 3.8234-1.2934 4.4172-4.1716 3.269.0171-1.532-.1693-3.1058.1362-4.5775.1447-.6974 1.2233-1.6472 1.8902-1.6563.5917-.0081 1.2451 1.0907 1.7784 1.7733.239.3059.2515.7888.3668 1.1915z"/><path d="m433.8627 218.4006c-.4456.3006-1.1947 1.1884-2.0357 1.2861-1.355.1575-3.0934-2.3209-2.8004-3.9581.1066-.5953.9252-1.4378 1.4955-1.5036 1.583-.1824 3.4492 1.9054 3.3406 4.1756z"/><path d="m395.3416 178.2713c-1.4841.9335-2.5533 2.0487-3.068 1.8341-.9537-.3976-1.5833-1.5728-2.3478-2.4241.7798-.6111 1.5988-1.7506 2.3291-1.6964.8652.0643 1.6538 1.1577 3.0867 2.2864z"/><path d="m444.3572 247.0452c-.7853-1.5512-1.7026-2.5303-1.5456-3.2863.1585-.7634 1.3823-1.3055 2.1394-1.9445.6128.7749 1.7251 1.5658 1.7008 2.3202-.0252.7866-1.1459 1.5381-2.2946 2.9106z"/><path d="m411.6472 213.9687c1.6125-1.3332 3.088-2.162 4.7347-.7754.3007.2532.216 1.6166-.1332 1.879-1.7228 1.2949-3.1532.5007-4.6015-1.1036z"/><path d="m457.0747 200.6819c.8045 1.2664 1.4893 1.9277 1.5884 2.6676.0535.399-1.0225 1.3983-1.3648 1.3049-.6471-.1765-1.4637-.8797-1.5857-1.489-.1073-.536.6377-1.2427 1.3621-2.4835z"/><path d="m406.7657 196.7715c-.8763.5152-1.5883 1.1105-1.7392.9919-.6562-.5157-1.1815-1.2179-1.6444-1.9245-.041-.0626.9222-1.0087 1.0639-.9272.732.421 1.3482 1.0432 2.3197 1.8598z"/><path d="m89.3989 103.1737c.7396 1.1086 1.6015 1.8597 1.4686 2.3295-.1935.6842-1.0369 1.4623-1.7332 1.6177-.3896.0869-1.4977-1.0327-1.4626-1.5533.0463-.6862.8976-1.318 1.7272-2.3939z"/><path d="m76.994 263.795c.6495 1.445 1.4427 2.3741 1.2679 3.0544-.1769.6882-1.3121 1.13-2.0275 1.6798-.5663-.7513-1.5884-1.5172-1.5653-2.2498.0215-.6753 1.1657-1.315 2.3249-2.4844z"/><path d="m229.3131 428.6559c-1.1135-1.6336-2.3699-3.0026-2.1698-3.2663.8203-1.0811 1.9871-2.0739 3.2364-2.5632.4582-.1795 1.4983 1.1265 2.273 1.7549-.936 1.1421-1.8721 2.2841-3.3396 4.0746z"/><path d="m147.9895 456.3169c.5038.8232 1.6186 1.9498 1.3904 2.4098-.5611 1.1308-1.7404 1.9549-2.6711 2.9023-.6139-.7069-1.8429-1.5604-1.7165-2.091.2819-1.1835 1.2406-2.2057 1.9236-3.2937.3578.0243.7157.0484 1.0736.0726z"/><path d="m202.6882 443.8955c-1.6971 1.0855-2.6665 2.1568-3.6698 2.1896-.6753.0221-2.1323-1.7342-1.9557-2.152.44-1.0403 1.4947-2.0902 2.5464-2.4821.484-.1803 1.5392 1.1726 3.0791 2.4445z"/><path d="m91.3157 454.1537c-.2207-1.6718.6019-2.7211 2.1887-2.6312 1.7783.1008 1.9679 1.4986 1.6553 2.9808-1.3883 1.0526-2.7211 1.504-3.844-.3496z"/><path d="m215.6686 436.9606c.7512 1.2718 1.6979 2.2172 1.5023 2.6885-.3419.8239-1.3062 1.5793-2.1785 1.8919-.3114.1116-1.6961-1.3181-1.5704-1.7403.2685-.9015 1.2036-1.6045 2.2466-2.8401z"/><path d="m79.8692 455.0372 1.3677-2.2419c.6832.6646 1.3664 1.3293 2.0484 1.9944-1.0422 1.4288-2.1492 1.9436-3.4161.2475z"/><path d="m240.1037 416.1396c.7981-.074 1.6104-.2516 2.384-.146.1838.025.2382.9984.3521 1.5356-.9114.146-1.8228.2919-2.7319.4363.0002-.6096-.002-1.2177-.0042-1.8259z"/><path d="m410.7047 338.8205c-1.3737 2.3682-2.0098 5.3102-5.1685 6.2963-.4824.1506-1.0763-.0556-1.6186-.0968.0999-.5988-.0158-1.424.3357-1.7586 1.8569-1.7685 3.8314-3.4135 5.7652-5.1014.2286.2201.4574.4403.6862.6605z"/><path d="m422.296 320.9915c.1877-.8119.1616-1.7857.6208-2.3918.4995-.6594 1.4727-1.3574 2.1956-1.3136.5018.0304.9295 1.2861 1.3909 1.9945-1.4366 2.9608-2.2387 3.2869-4.2073 1.7109z"/></g><path d="m468.7964 256.9349c-.4398-.996-1.0913-1.9695-1.201-3.0007-.0368-.3464 1.3053-.8394 2.0173-1.2659.6064 1.0611 1.2125 2.1226 1.8186 3.1841-.8782.3609-1.7565.7218-2.6349 1.0825z" fill="#7f4200"/><path d="m438.2181 319.3214c-.8425-1.3323-1.8002-2.2506-1.616-2.6871.3235-.7664 1.346-1.2377 2.0758-1.8326.447.5753 1.3156 1.2107 1.2442 1.7122-.1129.7916-.8567 1.4931-1.704 2.8075z" fill="#834504"/><path d="m460.5327 294.9005c-1.5331-1.6315-1.0597-3.2868 1.2816-4.48 1.0406 1.9139.2421 3.3007-1.2816 4.48z" fill="#834504"/><path d="m472.1445 224.3803c-2.2034-1.5491-3.1128-3.7867-1.7937-4.9704.5367-.4817 2.1525-.5073 2.7359-.0499 1.7178 1.3469 1.2842 3.1489-.9422 5.0203z" fill="#834504"/><path d="m447.6362 299.9698c1.2266-.9163 2.0635-1.5414 2.9005-2.1666.5867.8896 1.7418 1.8691 1.6188 2.6465-.1605 1.0143-1.3336 1.8683-2.0709 2.7912-.705-.9419-1.41-1.8838-2.4484-3.2711z" fill="#834504"/><path d="m464.0715 242.6806c-.6783-1.3286-1.4415-2.3932-1.2743-2.5681.8465-.8851 1.9157-1.5707 2.9774-2.2087.0783-.047 1.121 1.0877 1.0248 1.2416-.666 1.0663-1.5153 2.0183-2.7279 3.5352z" fill="#7f4200"/><path d="m426.3806 302.4032c-.5448-1.1463-1.1931-1.8816-1.031-2.3106.2706-.7161 1.0595-1.2364 1.6302-1.8391.3262.7038.8947 1.4062.8986 2.1117.0029.5211-.7301 1.0463-1.4978 2.038z" fill="#834504"/><path d="m388.8628 131.5305c-1.5092 1.0242-2.4258 2.1583-3.1839 2.0607-1.9555-.2517-2.4822-2.0388-2.2163-3.6866.1305-.8087 1.2719-1.4542 1.9558-2.1735.9864 1.0882 1.9729 2.1763 3.4444 3.7994z" fill="#834504"/><path d="m400.6375 110.3476c-1.1144-1.3329-2.2181-2.1374-2.4507-3.1434-.121-.5231 1.7276-2.1281 1.9462-1.9983 1.1357.6747 2.033 1.7507 3.0133 2.6869-.6883.6734-1.3765 1.3468-2.5088 2.4548z" fill="#7f4200"/><path d="m370.2287 129.191c1.0811 1.5469 2.0666 2.4453 2.2787 3.4993.0916.455-1.7068 1.9107-2.1384 1.7258-1.0003-.4286-1.9777-1.4689-2.3727-2.4901-.1691-.437 1.1363-1.4444 2.2324-2.735z" fill="#834504"/><path d="m399.5678 81.005c.737 1.1752 1.3106 1.8473 1.5473 2.6224.0667.2185-1.0565 1.154-1.2837 1.0431-.7097-.3465-1.4245-.9492-1.7708-1.6371-.1314-.2613.7345-1.0245 1.5072-2.0284z" fill="#834504"/><path d="m345.4997 409.4794c.1099-2.4816 1.375-3.6126 3.8679-3.3078 1.564 1.3655 2.1324 3.0134.4202 4.4795-1.7347 1.4854-3.2623.7153-4.2881-1.1717z" fill="#834504"/><path d="m291.4087 432.6248c-1.1916-1.1087-1.3976-2.4457-.1491-3.4528.6082-.4906 2.4733-.571 2.6249-.2667.4767.9563.4105 2.1831.554 3.3053-1.0103.1381-2.02.2762-3.0298.4142z" fill="#834504"/><path d="m239.4013 455.1297c-.3495-.9723-.6991-1.9446-1.0486-2.9169 1.2149.0463 2.442.0097 3.6378.1856.3984.0587.7167.6619 1.071 1.0161-.7047 1.6719-2.049 1.9783-3.6602 1.7152z" fill="#834504"/><path d="m268.8933 435.5842c1.6915-1.7765 2.847-.9117 3.8354.7784.4156 1.4223-.2153 2.051-1.5987 2.0934-2.0502.0629-2.2148-1.3507-2.2367-2.8718z" fill="#834504"/><path d="m307.4761 430.864c.7904 1.2303 1.6405 1.9862 1.6351 2.736-.0039.5373-1.2678 1.5862-1.7642 1.4767-.7383-.163-1.6638-1.0763-1.8047-1.8064-.0998-.5182.9635-1.2607 1.9338-2.4063z" fill="#834504"/><path d="m330.7428 426.9517c-.7245-1.0957-1.4911-1.7739-1.5393-2.4999-.0314-.4714 1.1839-1.5347 1.492-1.4174.722.275 1.5426 1.0233 1.7199 1.7312.1128.4503-.855 1.1714-1.6726 2.1861z" fill="#834504"/><path d="m282.0948 448.9816c-.7369-1.0531-1.6299-1.8106-1.4948-2.2562.2098-.6915 1.1201-1.1703 1.7335-1.7393.4768.5887 1.3136 1.1684 1.3287 1.7686.0148.5921-.8022 1.2049-1.5674 2.2269z" fill="#7f4200"/><path d="m318.5321 425.6257c.4123-.3466.8245-.6931 1.237-1.0401.6239.6031 1.2476 1.2065 1.8713 1.8099-.5817.4721-1.1634.9442-1.7451 1.4162-.4544-.7287-.9088-1.4573-1.3632-2.186z" fill="#834504"/><path d="m413.5376 105.0409c.804 1.3135 1.6081 2.0455 1.5743 2.7366-.0333.6819-.9142 1.3224-1.4232 1.981-.4941-.6998-1.2571-1.3512-1.3949-2.1153-.1049-.5813.5845-1.3058 1.2438-2.6023z" fill="#834504"/></g></svg>