<svg id="Layer_1" enable-background="new 0 0 75 75" height="512" viewBox="0 0 75 75" width="512" xmlns="http://www.w3.org/2000/svg"><g id="_x33_1_6_"><g><g><g><g><path d="m11.0638227 61.4640884c1.08113 1.0532913 2.5852251 1.5250473 4.02981 1.9625854 3.840579 1.1632385 7.6813021 2.3265228 11.5375071 3.4368668 4.7786217 1.375946 9.8002415 2.6799393 14.6695766 1.6709824 4.5398788-.9406967 8.5766792-3.8335724 13.1932106-4.2613831 1.6997833-.1575165 3.4697723.019928 5.0650635-.5876274 1.5952911-.6075478 2.9358025-2.4196091 2.2483788-3.9821472-.6220818-1.4140053-2.4376984-1.7848511-3.9818192-1.8304939-6.4174232-.1896973-12.6382256 1.9471703-18.8878403 3.4174156s-13.083744 2.2266998-18.8754845-.5436859c-1.665678-.7967491-3.1902924-1.86306-4.8476343-2.6771545-1.1855879-.5823593-3.7572384-1.8726501-4.9031048-.6567574-1.0233993 1.085949-.125288 3.196373.7523365 4.0513992z" fill="#d6d4d2"/></g></g><g><g><g><g><g><g><g><path d="m58.6132698 61.0615158c-.9756927.4511566-2.0666389.5140991-3.1262093.7134247-2.3709106.41959-4.5530586 1.510601-6.8084602 2.3604126-5.7175102 2.1610794-12.0014343 2.8324356-18.0440922 1.9302521-2.8325691-.4300919-5.6020031-1.1854553-8.3611927-1.9407578-3.2205906-.8917465-6.05303-2.2135849-9.1163626-3.4829216-.9231873-.3776474-1.6366119-.5350342-2.2553997-1.3952827-.5350361-.7552986-1.3323402-2.748558.0523767-3.0947685.5140352-.1363869 1.0280695-.2832069 1.5317307-.4510956.566411-.1993256 1.111948-.430088 1.6364841-.7238579 3.5248623-1.9827614 2.4022846-5.759388 1.5631046-9.0429878-.1048813-.4405899-.2203922-.8707466-.3356457-1.3113365-.4092817-1.6575508-.7763023-3.3465385-.7554283-5.0460281.0105009-1.6050453.4196539-3.2730942 1.3113384-4.5844345.3042717-.4510918.6714211-.8602448 1.091074-1.2168922-.41008.3534698 5.6998768 3.4861984 6.4938145 3.7661285 3.168087 1.0595703 7.0602264.3776474 10.1969376-.3986549 3.7241249-.9231873 8.1512985-1.6994896 11.2355042-4.0598984.0105019-.010498.0210037-.0209999.0315056-.0209999 1.1452446-.8963203 2.9569321-2.9814072 5.1193428-2.4862938 2.5378647.5804214 3.0497322 4.0405846 3.2732201 6.4518127.2412682 2.5807343.1677628 5.1929131-.2097626 7.7631493-.5036583 3.3360367-1.468853 8.0253525 2.5176697 9.5255127.0945091.0315056.1992607.0734444.3147697.125885 1.4896011.6399803 4.2487907 2.2660294 4.4795532 3.8605728.1183053.9457168-.5354156 2.1567115-1.8358726 2.7590598z" fill="#d86c52"/></g></g><g><g><path d="m53.3469124 37.0273361c-.419651.5874748-.8708076 1.1539497-1.363842 1.6994896-4.8362007 5.3082924-12.6623535 7.826088-20.257616 8.0254135-5.5490475.1610489-10.9676666-.790329-16.3758507-2.1296425-.4092817-1.6575508-.7763023-3.3465385-.7554283-5.0460281.0105009-1.6050453.4196539-3.2730942 1.3113384-4.5844345 7.9062977 3.4906082 17.0903969 3.0650215 25.1881981-.0734406 1.3218384-.5140343 2.6331787-1.1120148 3.8291321-1.8358765.0105019-.010498.0210037-.0209999.0315056-.0209999.9440613-.5769768 1.8253708-1.2483978 2.5806732-2.0141983.8078041-.4405918 1.6681137-.6714211 2.5386696-.4720955 2.5378646.5804215 3.0497321 4.0405846 3.27322 6.4518128z" fill="#c1504d"/></g></g><g><g><path d="m52.6963692 26.4526844c-.3985252.9336872-.7342987 1.8673763-.5664139 2.8535042.1573868.9441261.7658005 1.7624321.9546928 2.7065563.2412643 1.2379608-.3042717 2.5387993-1.1645813 3.4829216-.8496819.9336891-1.9826317 1.5631065-3.1052094 2.1506462-10.0710526 5.1509094-22.2822533 6.839901-32.8254623 2.727562-1.4790974-.5769768-3.1890879-1.7204933-2.9268208-3.2940979.0313749-.2098274.0943804-.41959.1678877-.6189156.3139753-.8136024.8174753-1.4238205 1.0070667-2.3709106.5488091-2.9654942-1.8338013-7.2730751-1.6576138-9.9137325.1260109-2.612175 3.0738335-4.3956089 5.6021299-4.8886414 2.1191425-.409153 4.3116646-.1993256 6.4726849-.0839443 9.6540794.5036602 21.8266182-1.1131268 25.1671944-.3252087 2.6331787.6399174 4.5740623 3.3045349 3.5669975 5.9901524-.1993922.5245361-.4616602 1.0595722-.6925524 1.5841083z" fill="#d86c52"/></g></g><g><g><path d="m53.3889198 24.868576c-.1993904.5245361-.4616585 1.0595722-.6925507 1.5841084-.1677628.2832699-.3670235.5665379-.5874138.818306-1.9932594 2.3499069-5.0564651 3.4724216-8.0464211 4.2382221-6.0006523 1.5421677-12.2635746 2.0141983-18.4531174 1.647049-3.2520924-.1888237-6.6300697-.6714211-9.2842503-2.5492344-1.7728672-1.2483978-2.9059458-3.0947723-3.3569746-5.1929131-.0945082-.4510937-.2307644-.8497448-.388279-1.237896.1260109-2.612175 3.0738335-4.3956089 5.6021299-4.8886414 2.1191425-.409153 4.3116646-.1993256 6.4726849-.0839443 9.6540794.5036602 21.8266182-1.1131268 25.1671944-.3252087 2.6331789.6399175 4.5740625 3.304535 3.5669977 5.9901524z" fill="#e57f6a"/></g></g><g><g><path d="m49.0561218 25.5820007c-1.1958275 2.73806-4.2906609 4.0913372-7.1964798 4.8046989-6.9344711 1.6889877-14.2674656 1.1330128-21.201807-.5664749-.9651909-.2412663-1.9617577-.5140362-2.7800636-1.080574-1.5736065-1.091011-1.3113384-2.2240257-1.091074-3.8185692.1567211-1.2005711-1.2064438-2.9862633.923315-3.1892166.702795-.0629406 1.3952179.2098274 2.0981407.3252106 2.1610203.3672123 4.2696629-.7343636 6.4201794-1.1958923 3.6458607-.8057384 8.3020782.1760025 11.3300171 0 1.4687233-.0839443 2.6856804.0629406 3.9655151.9441242.6189194.4196548 1.1854553.9861298 1.89888 1.2064571.9965668.3147087 2.045639-.0629406 3.0737076-.2203274 2.0221825-.3192749 3.4692765.7437172 2.5596695 2.7905636z" fill="#ffe8cc"/></g></g><g><g><g><path d="m53.6658707 15.8025331c-.9599876.2741613-1.94133.5315828-2.7947273 1.0497046-.8533974.5181236-1.5774231 1.3497086-1.7039452 2.3400269-.0774307.6060696.0708961 1.2300987-.0533676 1.8283234-.1797867.8655376-.8848076 1.5091171-1.5515518 2.0895748-1.9960709 1.737751-3.9921379 3.475502-5.9882088 5.213253-.8787155.7649994-1.8723335 1.5907383-3.0483856 1.8186817-.5326767.1032429-.8325844.109354-1.1544037-.3068752-.5408478-.6995106-2.9394493-4.4481487-3.6058617-5.4148712-.2130508-.3090611-3.2163029-3.2495041-2.9642982-3.4679413 3.2520218-2.8188438 6.8504486-4.9901562 10.4095955-7.3632126 1.4991646-.9995661 2.0636749-.3991652 3.0497627-.0190458 1.195713.460928 2.652874.139287 3.543457-.7821531.6666756-.6897774.9957848-1.6268997 1.4407539-2.4767551 1.4766884-2.8203583 5.5342331-5.6845121 8.5897102-3.3378167 1.6027145 1.2309318 2.1328201 3.6636748 1.1875343 5.4498239-1.0157966 1.9193857-3.2662429 2.7824552-5.3560637 3.3792827z" fill="#f99b02"/></g></g><g><g><path d="m36.7098846 29.1919193c3.9568405-2.5841675 7.9174728-5.2637234 10.9414825-8.9587021.9424171-1.1515274.8133278-1.7523994-.1247826-2.6251774-.7182541-.6682301-1.4651489-1.3056622-2.237896-1.9100447-.6158791-.4816952-1.4185181-1.3607016-2.2497215-1.284091-.3407974.0314732-.6490555.2075052-.9432869.3823223-2.2416916 1.3318882-4.383625 2.8315296-6.4026794 4.4815083-.9610138.7853451-1.9223862 1.6005211-2.8275719 2.4446297-.2470894.2304192-2.7686443 2.883337-2.7203007 2.9437675 1.9824543 2.1225357 4.0963268 4.3296204 6.8717899 5.185236" fill="#fcc45c"/></g></g><g opacity=".48"><g><path d="m46.4257927 19.2681541c-3.2126503 3.176403-6.5996513 6.1755619-10.1438637 8.9714413-1.1538239-1.6784878-2.223896-3.2520924-3.3989792-4.9620838 1.5841064-1.3323402 3.1787148-2.6541786 4.794323-3.9340153 1.2588348-1.0071316 2.8849449-2.8325043 4.4060478-3.3779764 1.5288734-.5448246 3.0798492 1.0372896 4.3015327 2.1204138.350441.3106956.3739777.8529396.0409394 1.1822204z"/></g></g></g><g><g><path d="m30.8837242 20.4161701c.9849567-.2486191 2.1396179.0206852 2.7548218.8290615.3135948.4120598.5157471.9700947 1.0002518 1.1528263.6307983.2379036 1.2536469-.3094425 1.7736244-.7385406 1.241684-1.0246582 2.8634949-1.5774441 4.472496-1.5244255.4216766.013895.884182.0893478 1.1570091.4111671.4419403.5212975.1092682 1.3526726-.4084625 1.7987823-.5177345.4461098-1.1909332.6985207-1.6585541 1.196909-.3303871.3521233-.5390663.8851337-.3325577 1.3215981.3149071.6655655 1.2818871.6301174 1.9673157.3611698.6854324-.2689476 1.4292755-.6717644 2.112114-.3963051.4993896.2014561.79179.7068539 1.1006699 1.1479511s.7522392.8844318 1.2893562.8460083c.4078331-.0291767.7427559-.3319588 1.1359673-.4440498s.9562492.1671944.8277893.5553665c-.0454292.1372623-.165863.2339058-.2814445.3207703-4.66362 3.5048847-11.2965279 4.1755562-16.5673561 1.6751652-1.2744408-.6045723-2.5161819-1.4266033-3.204258-2.6579647-1.2799378-2.2905484.4311217-5.2420884 2.8612174-5.8554898z" fill="#ffe8cc"/></g></g><g><g><path d="m49.0561218 25.5820007c-1.1958275 2.73806-4.2906609 4.0913372-7.1964798 4.8046989-6.9344711 1.6889877-14.2674656 1.1330128-21.201807-.5664749-.9651909-.2412663-1.9617577-.5140362-2.7800636-1.080574-1.5736065-1.091011-1.3113384-2.2240257-1.091074-3.8185692.1396351-1.0696888-.9397202-2.6245117.3672771-3.0738335-.5980415 1.4267845-.0420036 3.2102184 1.0595703 4.3536682 1.2168312 1.237896 2.9269485 1.8463764 4.6053085 2.2974682 5.6336327 1.5211658 11.5817814 1.7624321 17.3621731.9231873.7973022-.1153831 1.6156082-.2517662 2.3184052-.6504192.7029228-.3881512 1.2903366-1.0700722 1.3533401-1.8778133.0420036-.4406548-.0840073-.9022484.0525322-1.321928.3288536-1.0491524 1.6202774-.9977779 2.442028-1.3826141.6839256-.3202896 1.3480644-1.0523415 2.1707573-.8864803 1.0959893.2209586.8830758 1.5032481.5380326 2.2796839z" fill="#fcdab6"/></g></g></g><g opacity=".49"><g><path d="m21.7907848 36.4083557c-1.6679859 1.8149338-4.6158085 1.3008995-6.9552164.5350342-.5245352-.1678238-1.0595713-.3357086-1.6051083-.4825287.5595245-1.4498901 1.4549751-1.9063377.9335604-4.9201469 1.8673764 2.4442901 4.5950623 4.2487259 7.6267643 4.8676414z" fill="#c1504d"/></g></g></g><g opacity=".49"><g><path d="m58.6132698 61.0615158c-.9756927.4511566-2.0666389.5140991-3.1262093.7134247-2.3709106.41959-4.5530586 1.510601-6.8084602 2.3604126-5.7175102 2.1610794-12.0014343 2.8324356-18.0440922 1.9302521-2.8325691-.4300919-5.6020031-1.1854553-8.3611927-1.9407578-3.2205906-.8917465-6.05303-2.2135849-9.1163626-3.4829216-.9231873-.3776474-1.6366119-.5350342-2.2553997-1.3952827-.5350361-.7552986-1.3323402-2.748558.0523767-3.0947685.5140352-.1363869 1.0280695-.2832069 1.5317307-.4510956.1677589.3881531.4195261.7343636.7868032 1.0176353 12.051156 9.395134 30.2479553 9.6397934 42.6971245-2.2765312 1.4896011.6399803 4.2487907 2.2660294 4.4795532 3.8605728.1183063.9457169-.5354146 2.1567116-1.8358716 2.7590599z" fill="#c1504d"/></g></g></g><g opacity=".38"><g><path d="m57.0047798 10.3457088c-.9350548.7308254-3.127697.9299135-4.4101257.8231449-2.8520393-.2374458-.4732819-3.598731 1.2085228-3.9307041 1.4758682-.2913231 5.3837585 1.4019528 3.2016029 3.1075592z" fill="#fff"/></g></g><g opacity=".21"><g><path d="m20.9390373 55.6567383c.4613495 4.2740898 5.7325363 3.0969543 4.7032871-1.2639084-.3122578-1.3230171-1.6677895-3.7196312-2.6299725-4.4914932-.9310951-.7469139-2.1682987-.4908333-2.3979855 1.4284096-.1770095 1.479084.1693422 2.8879737.3246709 4.326992z" fill="#fff"/></g></g></g><g opacity=".21"><g><path d="m27.9203663 21.7080708c.4414787.0418224.9241657.1643887 1.1689358.5341721.2219276.3352757.178381.7946815-.0143909 1.1475277-.3894329.7128029-2.2173367 2.002346-3.9109688 2.1218243-.6681767.0471363-1.8068295-.0685825-2.2917252-.6095428-.5782242-.6450787.130024-1.2659016.6520977-1.727705 1.1873569-1.0502874 2.8120251-1.6163332 4.3960514-1.4662763z" fill="#fff"/></g></g></g></g><g><g><path d="m55.992878 44.2328529c.1416016-2.1108398-.15625-4.2807617-.8613281-6.2749023-.0458984-.1303711.0214844-.2729492.1523438-.3193359.1289063-.0473633.2724609.0219727.3183594.1523438.7275391 2.0581055 1.0351563 4.2973633.8886719 6.4750977-.0221674.3337019-.5214807.2972029-.498047-.0332033z" fill="#d86c52"/></g></g><g><g><path d="m57.8669014 41.6181068c.0253906-.9833984-.1416016-1.9882813-.484375-2.90625-.0478516-.1293945.0175781-.2734375.1474609-.3217773.1259766-.0488281.2714844.0170898.3212891.1469727.3642578.9775391.5429688 2.0473633.515625 3.09375-.0096054.3337822-.5094109.3190231-.5-.0126954z" fill="#d86c52"/></g></g><g><g><path d="m11.5290098 21.9115658c-.1171875-.0732422-.1523438-.2275391-.0791016-.3447266 1.4794922-2.3652344 4.0029297-4.0668945 6.749999-4.5522461.1494141-.0317383.2666016.0678711.2900391.2026367.0244141.1357422-.0664063.265625-.2021484.2895508-2.6103506.4614258-5.0087881 2.078125-6.4140615 4.3256836-.0753746.119215-.230772.151001-.3447266.0791016z" fill="#d86c52"/></g></g><g><g><path d="m11.8454161 19.2025814c-.1113281-.0810547-.1367188-.2368164-.0566406-.3491211.5527344-.7685547 1.2695313-1.4399414 2.0703125-1.940918.1162109-.0722656.2714844-.0385742.3447266.0795898.0732422.1166992.0380859.2709961-.0791016.3442383-.7470703.4672852-1.4140625 1.0927734-1.9296875 1.809082-.079197.1100827-.2341099.1387311-.3496094.057129z" fill="#d86c52"/></g></g></g><g><g><g><g><circle cx="7.599" cy="49.519" fill="#20d6fe" r="1.258"/></g></g></g><g><g><g><circle cx="9.947" cy="45.894" fill="#83e290" r="1.258"/></g></g></g><g><g><g><circle cx="11.811" cy="50.191" fill="#fcc45c" r="1.258"/></g></g></g></g><g><g><g><g><circle cx="64.868" cy="29.077" fill="#ff717f" r="1.918"/></g></g></g><g><g><g><circle cx="61.075" cy="24.749" fill="#20d6fe" r="1.918"/></g></g></g><g><g><g><circle cx="66.742" cy="23.916" fill="#fd276b" r="1.918"/></g></g></g></g></g></svg>